<?xml version="1.0" encoding="UTF-8"?>
<svg width="271px" height="57px" viewBox="0 0 271 57" version="1.1" xmlns="http://www.w3.org/2000/svg" xmlns:xlink="http://www.w3.org/1999/xlink">
    <title>Group</title>
    <g id="LOGO" stroke="none" stroke-width="1" fill="none" fill-rule="evenodd">
        <g transform="translate(-121.000000, -228.000000)" id="Group">
            <g transform="translate(121.000000, 228.000000)">
                <rect id="Rectangle" x="0" y="0" width="271" height="57"></rect>
                <g id="BUCKETRY." transform="translate(2.400000, 12.840000)" fill-rule="nonzero">
                    <path d="M19.392,32.16 C23.264,32.16 26.136,31.464 28.008,30.072 C29.88,28.68 30.816,26.592 30.816,23.808 C30.816,21.76 30.176,20.064 28.896,18.72 C27.616,17.376 25.6,16.56 22.848,16.272 L22.848,16.272 L22.848,16.224 C25.312,15.872 27.12,15.04 28.272,13.728 C29.424,12.416 30,10.816 30,8.928 C30,6.112 29.024,4.008 27.072,2.616 C25.12,1.224 22.144,0.512 18.144,0.48 L18.144,0.48 L5.68434189e-14,0.48 L5.68434189e-14,32.16 L19.392,32.16 Z M15.696,12.768 L10.704,12.768 L10.704,8.16 L15.696,8.16 C17.616,8.16 18.576,8.928 18.576,10.464 C18.576,12 17.616,12.768 15.696,12.768 L15.696,12.768 Z M16.416,24.864 L10.704,24.864 L10.704,20.256 L16.416,20.256 C17.408,20.256 18.152,20.448 18.648,20.832 C19.144,21.216 19.392,21.776 19.392,22.512 C19.392,23.28 19.144,23.864 18.648,24.264 C18.152,24.664 17.408,24.864 16.416,24.864 L16.416,24.864 Z M48.48,32.64 C53.6,32.64 57.432,31.472 59.976,29.136 C62.52,26.8 63.792,23.264 63.792,18.528 L63.792,18.528 L63.792,0.48 L52.608,0.48 L52.608,19.392 C52.608,20.992 52.256,22.2 51.552,23.016 C50.848,23.832 49.824,24.24 48.48,24.24 C47.168,24.24 46.16,23.832 45.456,23.016 C44.752,22.2 44.4,20.992 44.4,19.392 L44.4,19.392 L44.4,0.48 L33.168,0.48 L33.168,18.528 C33.168,23.264 34.44,26.8 36.984,29.136 C39.528,31.472 43.36,32.64 48.48,32.64 Z M83.088,32.64 C85.52,32.64 87.728,32.312 89.712,31.656 C91.696,31 93.384,29.92 94.776,28.416 C96.168,26.912 97.152,24.928 97.728,22.464 L97.728,22.464 L87.84,19.92 C87.648,21.424 87.184,22.52 86.448,23.208 C85.712,23.896 84.768,24.24 83.616,24.24 C82.336,24.24 81.312,23.96 80.544,23.4 C79.776,22.84 79.224,21.968 78.888,20.784 C78.552,19.6 78.384,18.112 78.384,16.32 C78.384,14.496 78.568,13 78.936,11.832 C79.304,10.664 79.864,9.8 80.616,9.24 C81.368,8.68 82.288,8.4 83.376,8.4 C84.56,8.4 85.544,8.704 86.328,9.312 C87.112,9.92 87.632,11.264 87.888,13.344 L87.888,13.344 L97.488,9.6 C97.04,7.328 96.12,5.488 94.728,4.08 C93.336,2.672 91.632,1.64 89.616,0.984 C87.6,0.328 85.424,-1.42108547e-14 83.088,-1.42108547e-14 C79.76,-1.42108547e-14 76.888,0.64 74.472,1.92 C72.056,3.2 70.2,5.056 68.904,7.488 C67.608,9.92 66.96,12.864 66.96,16.32 C66.96,19.776 67.608,22.72 68.904,25.152 C70.2,27.584 72.056,29.44 74.472,30.72 C76.888,32 79.76,32.64 83.088,32.64 Z M111.648,32.16 L111.648,23.877 L114.257,20.314 L120.144,32.16 L132.672,32.16 L122.113,13.078 L131.808,0.48 L119.904,0.48 L111.648,12.27 L111.648,0.48 L100.464,0.48 L100.464,32.16 L111.648,32.16 Z M161.76,32.16 L161.76,23.952 L146.064,23.952 L146.064,20.208 L158.256,20.208 L158.256,12.624 L146.064,12.624 L146.064,8.688 L161.184,8.688 L161.184,0.48 L134.88,0.48 L134.88,32.16 L161.76,32.16 Z M184.608,32.16 L184.608,8.688 L194.496,8.688 L194.496,0.48 L163.488,0.48 L163.488,8.688 L173.424,8.688 L173.424,32.16 L184.608,32.16 Z M208.8,32.16 L208.8,21.648 L211.886,21.648 L217.488,32.16 L229.632,32.16 L221.876,20 L222.128,19.8986667 C222.96237,19.5510123 223.710354,19.1261015 224.371951,18.6239342 L224.616,18.432 C226.776,16.672 227.856,14.048 227.856,10.56 C227.856,7.52 226.752,5.08 224.544,3.24 C222.336,1.4 219.168,0.48 215.04,0.48 L215.04,0.48 L197.856,0.48 L197.856,32.16 L208.8,32.16 Z M213.12,14.304 L208.8,14.304 L208.8,8.448 L213.12,8.448 C214.304,8.448 215.192,8.672 215.784,9.12 C216.376,9.568 216.672,10.32 216.672,11.376 C216.672,12.464 216.376,13.224 215.784,13.656 C215.192,14.088 214.304,14.304 213.12,14.304 L213.12,14.304 Z M249.504,32.16 L249.504,21.168 L260.592,0.48 L249.6,0.48 L246.24,7.728 L243.984,13.488 L241.728,7.728 L238.368,0.48 L227.232,0.48 L238.32,21.168 L238.32,32.16 L249.504,32.16 Z" id="BUCKETRY" fill="#FFFFFF"></path>
                    <path d="M260.832,32.544 C262.72,32.544 264.176,32.096 265.2,31.2 C266.224,30.304 266.736,29.04 266.736,27.408 C266.736,25.776 266.224,24.512 265.2,23.616 C264.176,22.72 262.72,22.272 260.832,22.272 C258.976,22.272 257.528,22.72 256.488,23.616 C255.448,24.512 254.928,25.776 254.928,27.408 C254.928,29.04 255.448,30.304 256.488,31.2 C257.528,32.096 258.976,32.544 260.832,32.544 Z" id="." fill="#FF3F3F"></path>
                </g>
            </g>
        </g>
    </g>
</svg>