<?xml version="1.0" encoding="UTF-8"?>
<svg width="2607px" height="88px" viewBox="0 0 2607 88" version="1.1" xmlns="http://www.w3.org/2000/svg" xmlns:xlink="http://www.w3.org/1999/xlink">
    <title>card-collection</title>
    <g id="Card" stroke="none" stroke-width="1" fill="none" fill-rule="evenodd">
        <g id="1920/1080" transform="translate(-47.000000, -669.000000)">
            <g id="card-collection" transform="translate(47.000000, 669.000000)">
                <g id="Group">
                    <rect id="Rectangle" fill="#202128" x="0" y="0" width="345" height="88" rx="16"></rect>
                    <text id="🪴" font-family="AppleColorEmoji, Apple Color Emoji" font-size="24" font-weight="normal" fill="#FFFFFF">
                        <tspan x="24" y="52">🪴</tspan>
                    </text>
                    <path d="M76.392,45.136 L76.392,31.96 L73.2,31.96 L73.2,45.136 L76.392,45.136 Z M59.496,44.44 C62.088,43.6 63.84,41.872 64.872,39.736 C65.856,41.752 67.536,43.288 70.032,44.08 L71.568,41.584 C67.992,40.504 66.432,37.864 66.432,35.08 L66.432,32.968 L63.216,32.968 L63.216,35.08 C63.216,37.864 61.632,40.792 57.936,41.944 L59.496,44.44 Z M76.392,54.088 L76.392,46.096 L61.32,46.096 L61.32,48.64 L73.2,48.64 L73.2,54.088 L76.392,54.088 Z M97.536,39.544 L97.536,32.608 L82.584,32.608 L82.584,39.544 L97.536,39.544 Z M94.44,37.12 L85.68,37.12 L85.68,35.032 L94.44,35.032 L94.44,37.12 Z M98.232,53.896 L98.232,51.52 L85.56,51.52 L85.56,50.272 L97.656,50.272 L97.656,44.608 L91.656,44.608 L91.656,43.216 L100.08,43.216 L100.08,40.72 L80.112,40.72 L80.112,43.216 L88.488,43.216 L88.488,44.608 L82.392,44.608 L82.392,46.936 L94.536,46.936 L94.536,48.088 L82.416,48.088 L82.416,53.896 L98.232,53.896 Z M119.496,52 L119.496,49.336 L116.4,49.336 L116.4,34.048 L113.568,34.048 L108.384,38.512 L110.28,40.672 L113.208,38.008 L113.112,39.568 L113.112,49.336 L109.608,49.336 L109.608,52 L119.496,52 Z M140.88,54.064 L140.88,31.96 L137.856,31.96 L137.856,40.288 L135.888,40.288 L135.888,32.536 L132.936,32.536 L132.936,53.128 L135.888,53.128 L135.888,42.832 L137.856,42.832 L137.856,54.064 L140.88,54.064 Z M123.504,49.552 C129.672,45.952 131.496,40.888 131.496,34.696 L122.784,34.696 L122.784,37.216 L128.376,37.216 C127.992,41.512 126.072,44.776 121.656,47.344 L123.504,49.552 Z M167.472,41.224 L168.6,38.752 C164.376,38.368 162.24,36.88 161.736,35.272 L167.64,35.272 L167.64,32.776 L151.272,32.776 L151.272,35.272 L157.176,35.272 C156.672,36.88 154.488,38.368 150.336,38.752 L151.416,41.224 C155.76,40.816 158.28,39.232 159.456,37.096 C160.632,39.232 163.152,40.816 167.472,41.224 Z M167.04,54.088 L167.04,46.768 L161.04,46.768 L161.04,44.632 L169.464,44.632 L169.464,42.088 L149.472,42.088 L149.472,44.632 L157.872,44.632 L157.872,46.768 L151.68,46.768 L151.68,49.264 L163.872,49.264 L163.872,54.088 L167.04,54.088 Z M189.864,54.112 L189.864,31.936 L186.696,31.936 L186.696,54.112 L189.864,54.112 Z M177.984,49.288 C181.32,49.288 183.792,46.24 183.792,41.368 C183.792,36.52 181.32,33.496 177.984,33.496 C174.648,33.496 172.176,36.52 172.176,41.368 C172.176,46.24 174.648,49.288 177.984,49.288 Z M177.984,46.408 C176.352,46.408 175.224,44.656 175.224,41.368 C175.224,38.08 176.352,36.352 177.984,36.352 C179.616,36.352 180.744,38.08 180.744,41.368 C180.744,44.656 179.616,46.408 177.984,46.408 Z M211.944,54.064 L211.944,31.96 L208.776,31.96 L208.776,54.064 L211.944,54.064 Z M195.264,49.912 C197.856,48.736 199.632,46.336 200.616,43.432 C201.6,46.144 203.328,48.232 205.92,49.36 L207.648,46.864 C203.952,45.328 202.176,41.512 202.176,37.912 L202.176,36.688 L206.736,36.688 L206.736,34.072 L194.352,34.072 L194.352,36.688 L198.96,36.688 L198.96,37.912 C198.96,41.68 197.184,45.736 193.464,47.392 L195.264,49.912 Z M238.56,42.856 L238.56,39.136 L241.488,39.136 L241.488,36.52 L238.56,36.52 L238.56,31.96 L235.392,31.96 L235.392,42.856 L238.56,42.856 Z M227.208,43.36 C230.568,43.36 233.088,41.2 233.088,38.2 C233.088,35.176 230.568,33.016 227.208,33.016 C223.848,33.016 221.328,35.176 221.328,38.2 C221.328,41.2 223.848,43.36 227.208,43.36 Z M227.208,40.768 C225.576,40.768 224.376,39.832 224.376,38.2 C224.376,36.568 225.576,35.608 227.208,35.608 C228.84,35.608 230.04,36.568 230.04,38.2 C230.04,39.832 228.84,40.768 227.208,40.768 Z M240.336,47.32 L240.336,45.04 L236.376,45.04 L236.376,43.48 L233.304,43.48 L233.304,45.04 L229.272,45.04 L229.272,47.32 L240.336,47.32 Z M224.328,53.512 C226.512,53.512 228.216,53.416 230.04,52.768 L229.608,50.272 C228.48,50.632 227.352,50.824 226.176,50.92 L226.176,44.968 L223.104,44.968 L223.104,53.512 L224.328,53.512 Z M234.792,54.088 C237.312,54.088 239.064,52.888 239.064,50.968 C239.064,49.048 237.312,47.872 234.792,47.872 C232.272,47.872 230.52,49.048 230.52,50.968 C230.52,52.888 232.272,54.088 234.792,54.088 Z M234.792,51.952 C233.952,51.952 233.328,51.64 233.328,50.968 C233.328,50.32 233.952,50.008 234.792,50.008 C235.656,50.008 236.256,50.32 236.256,50.968 C236.256,51.64 235.656,51.952 234.792,51.952 Z M261.648,54.04 L261.648,31.936 L258.456,31.936 L258.456,54.04 L261.648,54.04 Z M244.944,50.32 C252.792,46.552 255.072,40.984 255.072,34.24 L244.464,34.24 L244.464,36.76 L251.832,36.76 C251.376,41.656 248.928,45.136 243.288,47.824 L244.944,50.32 Z" id="식물1개죽이지않기" fill="#FFFFFF" fill-rule="nonzero"></path>
                </g>
                <g id="Group" transform="translate(377.000000, 0.000000)">
                    <rect id="Rectangle" fill="#202128" x="0" y="0" width="345" height="88" rx="16"></rect>
                    <text id="🪐" font-family="AppleColorEmoji, Apple Color Emoji" font-size="24" font-weight="normal" fill="#FFFFFF">
                        <tspan x="24" y="52">🪐</tspan>
                    </text>
                    <path d="M75.408,48.04 L75.408,32.512 L72.6,32.512 L72.6,39.856 L69.384,39.856 L69.384,42.112 L72.6,42.112 L72.6,48.04 L75.408,48.04 Z M67.152,35.632 L67.152,33.424 L60.936,33.424 L60.936,35.632 L67.152,35.632 Z M59.064,46.936 C61.176,46.288 63.336,44.32 64.08,42.4 C64.968,44.224 67.152,45.832 68.832,46.384 C69.288,45.64 69.744,44.92 70.224,44.2 C67.896,43.528 65.712,41.944 65.496,39.04 L69.696,39.04 L69.696,36.832 L58.44,36.832 L58.44,39.04 L62.568,39.04 C62.424,41.896 60.408,43.816 57.528,44.776 L59.064,46.936 Z M75.864,53.32 L75.864,51.088 L63.936,51.088 L63.936,46.888 L61.104,46.888 L61.104,53.32 L75.864,53.32 Z M96.672,53.896 L96.672,32.512 L94.008,32.512 L94.008,53.896 L96.672,53.896 Z M92.544,52.912 L92.544,32.92 L89.904,32.92 L89.904,41.44 L87.264,41.44 L87.264,43.696 L89.904,43.696 L89.904,52.912 L92.544,52.912 Z M86.52,36.448 L86.52,34.24 L80.928,34.24 L80.928,36.448 L86.52,36.448 Z M79.656,49.912 C81.408,48.904 83.184,46.696 83.688,44.704 C84.24,46.6 86.016,48.616 87.408,49.432 L88.992,47.44 C86.664,46.096 85.248,43.864 85.08,40.096 L88.44,40.096 L88.44,37.864 L78.816,37.864 L78.816,40.096 L82.32,40.096 C82.152,43.936 80.736,46.24 77.952,48.016 L79.656,49.912 Z M115.968,45.016 L115.968,39.88 L118.992,39.88 L118.992,37.576 L115.968,37.576 L115.968,32.512 L113.112,32.512 L113.112,45.016 L115.968,45.016 Z M109.872,43.288 L109.872,33.904 L99.864,33.904 L99.864,43.288 L109.872,43.288 Z M107.088,41.104 L102.648,41.104 L102.648,36.064 L107.088,36.064 L107.088,41.104 Z M108.864,53.896 C113.52,53.896 116.208,52.192 116.208,49.576 C116.208,46.888 113.52,45.232 108.864,45.232 C104.256,45.232 101.544,46.888 101.544,49.576 C101.544,52.192 104.256,53.896 108.864,53.896 Z M108.864,51.64 C106.056,51.64 104.448,50.848 104.448,49.576 C104.448,48.28 106.056,47.464 108.864,47.464 C111.696,47.464 113.328,48.28 113.328,49.576 C113.328,50.848 111.696,51.64 108.864,51.64 Z M138.048,49.048 L138.048,32.512 L135.24,32.512 L135.24,44.872 L131.16,44.872 L131.16,46.888 L135.24,46.888 L135.24,49.048 L138.048,49.048 Z M126.816,41.104 C129.936,41.104 132.168,39.472 132.168,37.168 C132.168,34.864 129.936,33.184 126.816,33.184 C123.696,33.184 121.392,34.864 121.392,37.12 C121.392,39.472 123.696,41.104 126.816,41.104 Z M126.816,38.992 C125.184,38.992 124.224,38.104 124.224,37.168 C124.224,36.232 125.184,35.272 126.816,35.272 C128.4,35.272 129.384,36.232 129.384,37.168 C129.384,38.104 128.4,38.992 126.816,38.992 Z M129,48.016 L129,44.008 C130.656,43.888 132.24,43.744 133.704,43.504 L133.536,41.44 C130.536,41.824 125.16,42.088 119.904,42.088 C120.048,42.808 120.168,43.576 120.288,44.296 C121.896,44.296 123.984,44.272 126.216,44.2 L126.216,48.016 L129,48.016 Z M138.384,53.32 L138.384,51.088 L125.496,51.088 L125.496,47.008 L122.688,47.008 L122.688,53.32 L138.384,53.32 Z M158.448,44.92 L158.448,32.512 L155.64,32.512 L155.64,36.136 L152.016,36.136 L152.016,38.344 L155.64,38.344 L155.64,40.456 L151.728,40.456 L151.728,42.592 L155.64,42.592 L155.64,44.92 L158.448,44.92 Z M142.224,45.088 C147.816,43.336 151.464,39.832 151.704,33.904 L141.768,33.904 L141.768,36.232 L148.584,36.232 C147.816,39.76 144.48,41.992 140.736,42.832 L142.224,45.088 Z M151.248,53.896 C155.904,53.896 158.592,52.192 158.592,49.552 C158.592,46.888 155.904,45.208 151.248,45.208 C146.64,45.208 143.976,46.888 143.976,49.552 C143.976,52.192 146.64,53.896 151.248,53.896 Z M151.248,51.64 C148.512,51.64 146.904,50.872 146.904,49.552 C146.904,48.256 148.512,47.44 151.248,47.44 C154.104,47.44 155.688,48.256 155.688,49.552 C155.688,50.872 154.104,51.64 151.248,51.64 Z M184.536,53.896 L184.536,43.048 L187.608,43.048 L187.608,40.744 L184.536,40.744 L184.536,32.512 L181.752,32.512 L181.752,53.896 L184.536,53.896 Z M169.032,49.216 C171.24,47.92 173.4,45.232 174.096,42.808 C174.816,45.136 177.288,47.656 179.04,48.784 C179.616,48.088 180.12,47.392 180.696,46.696 C177.456,44.632 175.512,41.32 175.512,37.096 L175.512,34.312 L172.608,34.312 L172.608,37.24 C172.608,41.512 170.784,44.944 167.304,47.176 C167.904,47.848 168.456,48.52 169.032,49.216 Z M206.304,53.896 L206.304,32.512 L203.472,32.512 L203.472,39.736 L199.608,39.736 L199.608,42.112 L203.472,42.112 L203.472,53.896 L206.304,53.896 Z M189.96,49.504 C192.192,48.304 194.376,45.592 195.072,43.144 C195.792,45.376 198.216,48.064 199.992,49.144 L201.6,47.032 C198.384,44.968 196.464,41.656 196.464,37.432 L196.464,34.312 L193.584,34.312 L193.584,37.576 C193.584,41.824 191.712,45.208 188.28,47.44 L189.96,49.504 Z M232.608,48.4 L232.608,41.248 L235.32,41.248 L235.32,38.92 L232.608,38.92 L232.608,32.512 L229.824,32.512 L229.824,48.4 L232.608,48.4 Z M226.824,41.632 C227.28,39.952 227.424,37.552 227.424,34.024 L216.504,34.024 L216.504,36.256 L224.592,36.256 C224.592,38.272 224.448,40.168 224.16,41.248 L226.824,41.632 Z M222.192,45.448 C224.448,45.376 227.304,45.088 228.84,44.92 L228.624,42.784 C227.208,43 223.992,43.216 222.072,43.264 L222.072,39.04 L219.288,39.04 L219.288,43.336 C217.896,43.36 216.456,43.384 215.184,43.384 L215.544,45.664 C216.96,45.664 219.72,45.544 222.192,45.448 Z M233.16,53.32 L233.16,51.088 L221.376,51.088 L221.376,47.032 L218.544,47.032 L218.544,53.32 L233.16,53.32 Z M249.624,35.008 L249.624,32.848 L242.52,32.848 L242.52,35.008 L249.624,35.008 Z M253.824,43.048 L254.904,40.744 C251.736,40.744 248.712,39.592 247.824,38.104 L253.848,38.104 L253.848,35.944 L238.32,35.944 L238.32,38.104 L244.44,38.104 C243.624,39.592 240.84,40.768 237.408,40.768 L238.416,43.048 C241.848,42.928 244.872,41.512 246.072,39.736 C247.32,41.44 250.68,42.832 253.824,43.048 Z M255.744,46.024 L255.744,43.768 L236.424,43.768 L236.424,46.024 L255.744,46.024 Z M253.272,53.92 L253.272,47.272 L238.488,47.272 L238.488,49.528 L250.464,49.528 L250.464,53.92 L253.272,53.92 Z M273.912,53.896 L273.912,43.504 L276.888,43.504 L276.888,41.176 L273.912,41.176 L273.912,32.512 L271.08,32.512 L271.08,53.896 L273.912,53.896 Z M266.688,36.112 L266.688,33.904 L260.088,33.904 L260.088,36.112 L266.688,36.112 Z M269.496,39.832 L269.496,37.6 L257.088,37.6 L257.088,39.832 L269.496,39.832 Z M263.304,49.792 C266.376,49.792 268.464,47.8 268.464,45.184 C268.464,42.496 266.376,40.576 263.304,40.576 C260.232,40.576 258.144,42.568 258.144,45.184 C258.144,47.896 260.232,49.792 263.304,49.792 Z M263.304,47.512 C261.888,47.512 260.88,46.576 260.88,45.184 C260.88,43.768 261.912,42.832 263.304,42.832 C264.696,42.832 265.728,43.768 265.728,45.184 C265.728,46.576 264.864,47.512 263.304,47.512 Z M295.632,53.896 L295.632,32.512 L292.824,32.512 L292.824,53.896 L295.632,53.896 Z M279.504,50.032 C286.032,46.48 288.888,41.2 289.056,34.744 L279.072,34.744 L279.072,37.072 L286.032,37.072 C285.648,41.32 282.456,45.784 277.776,47.92 L279.504,50.032 Z" id="천체망원경사서관측하기" fill="#FFFFFF" fill-rule="nonzero"></path>
                </g>
                <g id="Group" transform="translate(754.000000, 0.000000)">
                    <rect id="Rectangle" fill="#202128" x="0" y="0" width="345" height="88" rx="16"></rect>
                    <text id="🍎" font-family="AppleColorEmoji, Apple Color Emoji" font-size="24" font-weight="normal" fill="#FFFFFF">
                        <tspan x="24" y="52">🍎</tspan>
                    </text>
                    <path d="M75.336,54.064 L75.336,43.096 L78.552,43.096 L78.552,40.456 L75.336,40.456 L75.336,31.96 L72.168,31.96 L72.168,54.064 L75.336,54.064 Z M59.472,49.528 C61.968,48.304 63.624,45.976 64.584,43.168 C65.52,45.88 67.056,47.944 69.36,49.12 L71.28,46.624 C67.728,44.896 66.168,40.864 66.168,36.88 L66.168,33.664 L62.976,33.664 L62.976,36.88 C62.976,40.984 61.296,45.232 57.576,46.96 L59.472,49.528 Z M97.488,54.04 L97.488,43.48 L100.464,43.48 L100.464,40.84 L97.488,40.84 L97.488,31.936 L94.32,31.936 L94.32,54.04 L97.488,54.04 Z M91.824,44.416 C92.424,40.768 92.424,38.08 92.424,35.944 L92.424,34.144 L81.048,34.144 L81.048,36.664 L89.304,36.664 C89.304,38.68 89.232,40.96 88.728,44.152 L91.824,44.416 Z M80.208,49.624 C84.072,49.624 88.992,49.504 93.48,48.736 L93.312,46.456 C91.296,46.72 89.136,46.84 87,46.912 L87,40.48 L83.88,40.48 L83.88,47.008 C82.44,47.032 81.144,47.032 79.92,47.032 L80.208,49.624 Z M124.944,54.112 L124.944,42.736 L128.16,42.736 L128.16,40.12 L124.944,40.12 L124.944,31.96 L121.776,31.96 L121.776,54.112 L124.944,54.112 Z M110.376,48.808 C114.216,48.808 117.24,48.664 120.576,48.088 L120.264,45.472 C117.408,45.952 114.792,46.144 111.648,46.168 L111.648,36.568 L118.8,36.568 L118.8,34 L108.48,34 L108.48,48.808 L110.376,48.808 Z M148.032,54.112 L148.032,31.936 L144.864,31.936 L144.864,54.112 L148.032,54.112 Z M136.152,49.288 C139.488,49.288 141.96,46.24 141.96,41.368 C141.96,36.52 139.488,33.496 136.152,33.496 C132.816,33.496 130.344,36.52 130.344,41.368 C130.344,46.24 132.816,49.288 136.152,49.288 Z M136.152,46.408 C134.52,46.408 133.392,44.656 133.392,41.368 C133.392,38.08 134.52,36.352 136.152,36.352 C137.784,36.352 138.912,38.08 138.912,41.368 C138.912,44.656 137.784,46.408 136.152,46.408 Z M169.176,53.896 L169.176,32.512 L166.368,32.512 L166.368,40.36 L162.6,40.36 C162.264,36.544 160.32,33.976 157.152,33.976 C153.672,33.976 151.632,37.12 151.632,41.632 C151.632,46.12 153.672,49.24 157.152,49.24 C160.344,49.24 162.312,46.6 162.624,42.736 L166.368,42.736 L166.368,53.896 L169.176,53.896 Z M157.152,46.984 C155.544,46.984 154.368,44.992 154.368,41.632 C154.368,38.248 155.544,36.232 157.152,36.232 C158.808,36.232 159.984,38.248 159.984,41.632 C159.984,44.992 158.808,46.984 157.152,46.984 Z M190.44,45.856 L190.44,43.36 L178.128,43.36 L178.128,40.888 L189.768,40.888 L189.768,38.44 L178.128,38.44 L178.128,36.112 L190.272,36.112 L190.272,33.568 L174.912,33.568 L174.912,45.856 L190.44,45.856 Z M192.576,51.52 L192.576,48.952 L172.56,48.952 L172.56,51.52 L192.576,51.52 Z M218.424,43.12 L218.424,31.984 L215.256,31.984 L215.256,43.12 L218.424,43.12 Z M201.528,43.216 C204.12,42.424 205.896,40.768 206.928,38.656 C207.912,40.576 209.616,42.112 212.136,42.856 L213.648,40.384 C210.072,39.352 208.488,36.736 208.488,34.144 L208.488,32.488 L205.272,32.488 L205.272,34.144 C205.272,36.832 203.64,39.592 199.992,40.744 L201.528,43.216 Z M219,53.896 L219,51.448 L206.88,51.448 L206.88,50.08 L218.448,50.08 L218.448,44.104 L203.712,44.104 L203.712,46.528 L215.304,46.528 L215.304,47.824 L203.736,47.824 L203.736,53.896 L219,53.896 Z M239.544,48.04 L239.544,32.512 L236.736,32.512 L236.736,39.856 L233.52,39.856 L233.52,42.112 L236.736,42.112 L236.736,48.04 L239.544,48.04 Z M231.288,35.632 L231.288,33.424 L225.072,33.424 L225.072,35.632 L231.288,35.632 Z M223.2,46.936 C225.312,46.288 227.472,44.32 228.216,42.4 C229.104,44.224 231.288,45.832 232.968,46.384 C233.424,45.64 233.88,44.92 234.36,44.2 C232.032,43.528 229.848,41.944 229.632,39.04 L233.832,39.04 L233.832,36.832 L222.576,36.832 L222.576,39.04 L226.704,39.04 C226.56,41.896 224.544,43.816 221.664,44.776 L223.2,46.936 Z M240,53.32 L240,51.088 L228.072,51.088 L228.072,46.888 L225.24,46.888 L225.24,53.32 L240,53.32 Z M260.28,54.064 L260.28,43.216 L263.448,43.216 L263.448,40.6 L260.28,40.6 L260.28,31.96 L257.112,31.96 L257.112,54.064 L260.28,54.064 Z M255.672,37.744 L255.672,35.224 L250.872,35.224 L250.872,32.344 L247.704,32.344 L247.704,35.224 L242.808,35.224 L242.808,37.744 L255.672,37.744 Z M249.312,49.552 C252.504,49.552 254.88,47.392 254.88,44.248 C254.88,41.176 252.504,38.992 249.312,38.992 C246.096,38.992 243.696,41.176 243.696,44.248 C243.696,47.392 246.096,49.552 249.312,49.552 Z M249.312,46.96 C247.776,46.96 246.72,46 246.72,44.272 C246.72,42.544 247.776,41.56 249.312,41.56 C250.848,41.56 251.88,42.592 251.88,44.248 C251.88,45.976 250.848,46.96 249.312,46.96 Z M283.416,54.04 L283.416,31.936 L280.224,31.936 L280.224,54.04 L283.416,54.04 Z M266.712,50.32 C274.56,46.552 276.84,40.984 276.84,34.24 L266.232,34.24 L266.232,36.76 L273.6,36.76 C273.144,41.656 270.696,45.136 265.056,47.824 L266.712,50.32 Z" id="사과다이어트실천하기" fill="#FFFFFF" fill-rule="nonzero"></path>
                </g>
                <g id="Group" transform="translate(1131.000000, 0.000000)">
                    <rect id="Rectangle" fill="#202128" x="0" y="0" width="345" height="88" rx="16"></rect>
                    <text id="🍺" font-family="AppleColorEmoji, Apple Color Emoji" font-size="24" font-weight="normal" fill="#FFFFFF">
                        <tspan x="24" y="52">🍺</tspan>
                    </text>
                    <path d="M76.992,54.04 L76.992,31.936 L73.992,31.936 L73.992,54.04 L76.992,54.04 Z M72.48,53.056 L72.48,32.32 L69.528,32.32 L69.528,39.496 L66.72,39.496 L66.72,42.064 L69.528,42.064 L69.528,53.056 L72.48,53.056 Z M59.472,49.936 C61.488,48.688 62.76,46.528 63.528,44.008 C64.272,46.336 65.448,48.256 67.464,49.408 L69.312,47.104 C66.12,45.256 65.04,41.512 65.04,37.816 L65.04,36.736 L68.256,36.736 L68.256,34.168 L58.416,34.168 L58.416,36.736 L61.968,36.736 L61.968,37.816 C61.968,41.656 60.816,45.544 57.6,47.608 L59.472,49.936 Z M97.512,43.192 L97.512,38.8 L100.416,38.8 L100.416,36.232 L97.512,36.232 L97.512,31.96 L94.344,31.96 L94.344,43.192 L97.512,43.192 Z M91.344,42.616 L91.344,32.92 L88.224,32.92 L88.224,35.56 L83.88,35.56 L83.88,32.92 L80.76,32.92 L80.76,42.616 L91.344,42.616 Z M88.224,40.144 L83.88,40.144 L83.88,37.936 L88.224,37.936 L88.224,40.144 Z M98.136,53.896 L98.136,51.448 L86.088,51.448 L86.088,50.056 L97.512,50.056 L97.512,44.056 L82.92,44.056 L82.92,46.456 L94.392,46.456 L94.392,47.8 L82.944,47.8 L82.944,53.896 L98.136,53.896 Z M125.664,40.96 L126.768,38.464 C122.64,38.152 120.504,36.664 119.928,35.2 L125.808,35.2 L125.808,32.68 L109.464,32.68 L109.464,35.2 L115.32,35.2 C114.744,36.664 112.608,38.152 108.48,38.464 L109.584,40.96 C113.928,40.552 116.448,39.016 117.624,36.904 C118.776,39.016 121.32,40.552 125.664,40.96 Z M127.608,44.824 L127.608,42.304 L119.184,42.304 L119.184,39.712 L116.016,39.712 L116.016,42.304 L107.64,42.304 L107.64,44.824 L127.608,44.824 Z M125.232,53.824 L125.232,46.456 L109.968,46.456 L109.968,53.824 L125.232,53.824 Z M122.112,51.328 L113.064,51.328 L113.064,48.928 L122.112,48.928 L122.112,51.328 Z M153.096,39.712 L154.152,37.336 C149.184,36.88 146.784,34.6 146.784,32.488 L146.784,32.08 L143.52,32.08 L143.52,32.488 C143.52,34.6 141.12,36.88 136.152,37.336 L137.184,39.712 C141.048,39.304 143.712,37.864 145.152,35.848 C146.592,37.864 149.232,39.304 153.096,39.712 Z M153.288,53.896 L153.288,51.52 L140.616,51.52 L140.616,50.272 L152.712,50.272 L152.712,44.536 L146.712,44.536 L146.712,43.12 L155.136,43.12 L155.136,40.624 L135.168,40.624 L135.168,43.12 L143.544,43.12 L143.544,44.536 L137.448,44.536 L137.448,46.888 L149.592,46.888 L149.592,48.088 L137.472,48.088 L137.472,53.896 L153.288,53.896 Z M179.424,47.272 C180.264,42.736 180.24007,39.712 180.24007,36.616 L180.24007,34 L164.76,34 L164.76,36.52 L177.072,36.52 L177.072,36.616 C177.072,39.616 177.048,42.76 176.28,46.984 L179.424,47.272 Z M182.688,51.184 L182.688,48.592 L162.696,48.592 L162.696,51.184 L182.688,51.184 Z M202.176,48.088 L202.176,40.936 L205.104,40.936 L205.104,38.344 L202.176,38.344 L202.176,31.96 L199.008,31.96 L199.008,48.088 L202.176,48.088 Z M195.96,44.44 L195.96,33.784 L185.424,33.784 L185.424,44.44 L195.96,44.44 Z M192.84,41.944 L188.52,41.944 L188.52,36.28 L192.84,36.28 L192.84,41.944 Z M202.968,53.68 L202.968,51.16 L191.088,51.16 L191.088,46.504 L187.92,46.504 L187.92,53.68 L202.968,53.68 Z M229.608,54.064 L229.608,42.904 L232.824,42.904 L232.824,40.288 L229.608,40.288 L229.608,31.984 L226.44,31.984 L226.44,54.064 L229.608,54.064 Z M223.536,48.688 L223.536,34.048 L212.976,34.048 L212.976,48.688 L223.536,48.688 Z M220.416,46.192 L216.096,46.192 L216.096,36.544 L220.416,36.544 L220.416,46.192 Z M252.696,54.112 L252.696,31.936 L249.528,31.936 L249.528,54.112 L252.696,54.112 Z M235.992,49.72 C238.704,48.472 240.432,46.144 241.416,43.144 C242.4,45.856 244.056,48.04 246.648,49.192 L248.448,46.624 C244.704,45.016 242.952,40.984 242.952,36.88 L242.952,33.664 L239.784,33.664 L239.784,36.88 C239.784,41.2 237.96,45.424 234.096,47.104 L235.992,49.72 Z M274.872,54.04 L274.872,31.936 L271.68,31.936 L271.68,54.04 L274.872,54.04 Z M258.168,50.32 C266.016,46.552 268.296,40.984 268.296,34.24 L257.688,34.24 L257.688,36.76 L265.056,36.76 C264.6,41.656 262.152,45.136 256.512,47.824 L258.168,50.32 Z M283.104,46.912 L283.608,37.096 L283.728,33.76 L280.176,33.76 L280.296,37.096 L280.8,46.912 L283.104,46.912 Z M283.728,52.336 L283.728,48.928 L280.224,48.928 L280.224,52.336 L283.728,52.336 Z" id="제발좀술그만마시기!" fill="#FFFFFF" fill-rule="nonzero"></path>
                </g>
                <g id="Group" transform="translate(1508.000000, 0.000000)">
                    <rect id="Rectangle" fill="#202128" x="0" y="0" width="345" height="88" rx="16"></rect>
                    <text id="⚽️" font-family="AppleColorEmoji, Apple Color Emoji" font-size="24" font-weight="normal" fill="#FFFFFF">
                        <tspan x="24" y="52">⚽️</tspan>
                    </text>
                    <path d="M75.768,49.048 L75.768,32.512 L72.96,32.512 L72.96,44.872 L68.88,44.872 L68.88,46.888 L72.96,46.888 L72.96,49.048 L75.768,49.048 Z M64.536,41.104 C67.656,41.104 69.888,39.472 69.888,37.168 C69.888,34.864 67.656,33.184 64.536,33.184 C61.416,33.184 59.112,34.864 59.112,37.12 C59.112,39.472 61.416,41.104 64.536,41.104 Z M64.536,38.992 C62.904,38.992 61.944,38.104 61.944,37.168 C61.944,36.232 62.904,35.272 64.536,35.272 C66.12,35.272 67.104,36.232 67.104,37.168 C67.104,38.104 66.12,38.992 64.536,38.992 Z M66.72,48.016 L66.72,44.008 C68.376,43.888 69.96,43.744 71.424,43.504 L71.256,41.44 C68.256,41.824 62.88,42.088 57.624,42.088 C57.768,42.808 57.888,43.576 58.008,44.296 C59.616,44.296 61.704,44.272 63.936,44.2 L63.936,48.016 L66.72,48.016 Z M76.104,53.32 L76.104,51.088 L63.216,51.088 L63.216,47.008 L60.408,47.008 L60.408,53.32 L76.104,53.32 Z M96.144,54.064 L96.144,43.216 L99.312,43.216 L99.312,40.6 L96.144,40.6 L96.144,31.96 L92.976,31.96 L92.976,54.064 L96.144,54.064 Z M91.536,37.744 L91.536,35.224 L86.736,35.224 L86.736,32.344 L83.568,32.344 L83.568,35.224 L78.672,35.224 L78.672,37.744 L91.536,37.744 Z M85.176,49.552 C88.368,49.552 90.744,47.392 90.744,44.248 C90.744,41.176 88.368,38.992 85.176,38.992 C81.96,38.992 79.56,41.176 79.56,44.248 C79.56,47.392 81.96,49.552 85.176,49.552 Z M85.176,46.96 C83.64,46.96 82.584,46 82.584,44.272 C82.584,42.544 83.64,41.56 85.176,41.56 C86.712,41.56 87.744,42.592 87.744,44.248 C87.744,45.976 86.712,46.96 85.176,46.96 Z M118.68,40.456 L118.68,37.936 L106.512,37.936 L106.512,32.752 L103.344,32.752 L103.344,40.456 L118.68,40.456 Z M120.888,45.256 L120.888,42.712 L100.872,42.712 L100.872,45.256 L120.888,45.256 Z M118.8,53.608 L118.8,51.064 L106.32,51.064 L106.32,47.008 L103.128,47.008 L103.128,53.608 L118.8,53.608 Z M139.896,54.064 L139.896,45.184 L148.392,45.184 L148.392,42.64 L145.488,42.64 C145.978667,39.888 146.033185,37.8186667 146.039243,35.926321 L146.04,33.232 L130.704,33.232 L130.704,35.776 L142.944,35.776 C142.944,37.696 142.896,39.832 142.344,42.64 L128.424,42.64 L128.424,45.184 L136.68,45.184 L136.68,54.064 L139.896,54.064 Z M167.88,47.944 L167.88,40.576 L170.808,40.576 L170.808,37.984 L167.88,37.984 L167.88,31.96 L164.712,31.96 L164.712,47.944 L167.88,47.944 Z M163.296,43.624 L162.984,41.128 C160.608,41.632 158.4,41.8 154.464,41.8 L154.464,36.232 L161.208,36.232 L161.208,33.712 L151.32,33.712 L151.32,44.344 L153.168,44.344 C158.088,44.344 160.608,44.2 163.296,43.624 Z M168.672,53.68 L168.672,51.16 L156.792,51.16 L156.792,46.264 L153.624,46.264 L153.624,53.68 L168.672,53.68 Z M195.36,40.648 C196.056,37.936 196.056,35.848 196.056,34.216 L196.056,32.848 L188.16,32.848 L188.16,35.392 L192.984,35.392 C192.912,36.736 192.84,38.248 192.288,40.288 L195.36,40.648 Z M185.328,40.672 C186.38784,37.84576 186.472627,35.5883008 186.47941,34.1799501 L186.48,32.848 L179.64,32.848 L179.64,35.392 L183.36,35.392 C183.288,36.616 183.024,38.176 182.28,40.216 L185.328,40.672 Z M197.952,44.536 L197.952,41.992 L189.936,41.992 L189.936,38.152 L186.84,38.152 L186.84,41.992 L178.056,41.992 L178.056,44.536 L197.952,44.536 Z M195.456,53.968 L195.456,46.312 L180.168,46.312 L180.168,48.808 L192.288,48.808 L192.288,53.968 L195.456,53.968 Z M223.176,39.352 L223.176,36.856 L211.176,36.856 L211.176,34.912 L223.008,34.912 L223.008,32.392 L208.032,32.392 L208.032,39.352 L223.176,39.352 Z M225.552,43.024 L225.552,40.528 L205.56,40.528 L205.56,43.024 L225.552,43.024 Z M223.656,53.872 L223.656,51.448 L210.984,51.448 L210.984,50.128 L223.08,50.128 L223.08,44.272 L207.816,44.272 L207.816,46.648 L219.96,46.648 L219.96,47.896 L207.84,47.896 L207.84,53.872 L223.656,53.872 Z M246.168,54.112 L246.168,31.936 L243,31.936 L243,39.904 L239.304,39.904 C238.848,35.944 236.64,33.496 233.664,33.496 C230.376,33.496 227.952,36.52 227.952,41.368 C227.952,46.24 230.376,49.288 233.664,49.288 C236.736,49.288 239.016,46.696 239.328,42.472 L243,42.472 L243,54.112 L246.168,54.112 Z M233.664,46.408 C232.032,46.408 230.976,44.656 230.976,41.368 C230.976,38.08 232.032,36.352 233.664,36.352 C235.296,36.352 236.376,38.08 236.376,41.368 C236.376,44.656 235.296,46.408 233.664,46.408 Z M267,54.016 L267,43 L270.096,43 L270.096,40.384 L267,40.384 L267,31.936 L263.832,31.936 L263.832,54.016 L267,54.016 Z M251.256,50.248 C258.624,46.528 261.12,40.864 261.12,34.216 L250.704,34.216 L250.704,36.784 L257.928,36.784 C257.352,41.704 254.64,45.16 249.48,47.824 L251.256,50.248 Z M290.184,54.04 L290.184,31.936 L286.992,31.936 L286.992,54.04 L290.184,54.04 Z M273.48,50.32 C281.328,46.552 283.608,40.984 283.608,34.24 L273,34.24 L273,36.76 L280.368,36.76 C279.912,41.656 277.464,45.136 271.824,47.824 L273.48,50.32 Z" id="원하는구단꼭들어가기" fill="#FFFFFF" fill-rule="nonzero"></path>
                </g>
                <g id="Group" transform="translate(1885.000000, 0.000000)">
                    <rect id="Rectangle" fill="#202128" x="0" y="0" width="345" height="88" rx="16"></rect>
                    <text id="🚴‍♂️" font-family="AppleColorEmoji, Apple Color Emoji" font-size="24" font-weight="normal" fill="#FFFFFF">
                        <tspan x="24" y="52">🚴‍♂️</tspan>
                    </text>
                    <path d="M76.512,48.136 L76.512,31.96 L73.344,31.96 L73.344,35.032 L68.424,35.032 C67.344,33.904 65.856,33.28 64.128,33.28 C60.864,33.28 58.32,35.704 58.32,38.992 C58.32,42.304 60.864,44.728 64.128,44.728 C65.856,44.728 67.392,44.056 68.472,42.928 L73.344,42.928 L73.344,48.136 L76.512,48.136 Z M64.128,41.968 C62.496,41.968 61.32,40.84 61.32,38.992 C61.32,37.168 62.496,36.04 64.128,36.04 C65.76,36.04 66.96,37.168 66.96,38.992 C66.96,40.84 65.76,41.968 64.128,41.968 Z M73.344,40.408 L69.792,40.408 C69.912,40.072 69.96,39.592 69.96,38.992 C69.96,38.488 69.888,38.008 69.792,37.552 L73.344,37.552 L73.344,40.408 Z M77.016,53.68 L77.016,51.16 L65.112,51.16 L65.112,46.552 L61.944,46.552 L61.944,53.68 L77.016,53.68 Z M97.512,43 L97.512,38.8 L100.416,38.8 L100.416,36.208 L97.512,36.208 L97.512,31.96 L94.344,31.96 L94.344,43 L97.512,43 Z M91.296,42.184 L91.296,32.992 L80.76,32.992 L80.76,42.184 L91.296,42.184 Z M88.176,39.688 L83.856,39.688 L83.856,35.464 L88.176,35.464 L88.176,39.688 Z M98.136,53.8 L98.136,51.352 L86.088,51.352 L86.088,49.912 L97.512,49.912 L97.512,43.864 L82.92,43.864 L82.92,46.312 L94.392,46.312 L94.392,47.632 L82.944,47.632 L82.944,53.8 L98.136,53.8 Z M121.152,54.04 L121.152,31.936 L118.152,31.936 L118.152,54.04 L121.152,54.04 Z M116.616,53.08 L116.616,32.32 L113.664,32.32 L113.664,40.096 L111.912,40.096 C111.552,35.776 109.776,33.52 107.16,33.52 C104.232,33.52 102.384,36.544 102.384,41.536 C102.384,46.552 104.232,49.576 107.16,49.576 C109.872,49.576 111.648,47.008 111.936,42.664 L113.664,42.664 L113.664,53.08 L116.616,53.08 Z M107.16,46.6 C105.936,46.6 105.24,45.016 105.24,41.536 C105.24,38.152 105.936,36.496 107.16,36.496 C108.384,36.496 109.08,38.152 109.08,41.536 C109.08,45.016 108.384,46.6 107.16,46.6 Z M147.432,54.064 L147.432,46.168 L141.288,46.168 L141.288,43.048 L149.736,43.048 L149.736,40.528 L146.952,40.528 C147.3472,38.448 147.381867,36.8186667 147.384085,35.3431609 L147.384,32.896 L132.192,32.896 L132.192,35.44 L144.264,35.44 C144.264,36.904 144.192,38.512 143.784,40.528 L129.72,40.528 L129.72,43.048 L138.12,43.048 L138.12,46.168 L131.736,46.168 L131.736,48.664 L144.24,48.664 L144.24,54.064 L147.432,54.064 Z M170.808,51.208 L170.808,49 L162.504,49 L162.504,45.352 L168.6,45.352 L168.6,43.12 L156.744,43.12 L156.744,40.816 L167.688,40.816 L167.688,38.608 L156.744,38.608 L156.744,36.232 L168.408,36.232 L168.408,34 L153.936,34 L153.936,45.352 L159.696,45.352 L159.696,49 L151.488,49 L151.488,51.208 L170.808,51.208 Z M190.44,53.896 L190.44,32.512 L187.752,32.512 L187.752,40.936 L185.856,40.936 L185.856,32.896 L183.216,32.896 L183.216,52.912 L185.856,52.912 L185.856,43.168 L187.752,43.168 L187.752,53.896 L190.44,53.896 Z M174.912,48.832 C177.384,48.832 180.528,48.688 182.136,48.256 L181.872,46.048 C180.432,46.408 177.864,46.6 175.68,46.528 L175.68,37.264 C177.456,37.264 179.208,37.288 180.96,37.288 L180.96,35.056 L172.872,35.056 L172.872,48.832 L174.912,48.832 Z M210.72,45.088 L210.72,39.64 L213.648,39.64 L213.648,37.048 L210.72,37.048 L210.72,31.96 L207.552,31.96 L207.552,45.088 L210.72,45.088 Z M194.592,45.208 C197.184,44.368 198.936,42.64 199.92,40.432 C200.88,42.256 202.56,43.696 204.984,44.44 L206.496,41.992 C203.016,40.96 201.528,38.488 201.456,35.968 L205.776,35.968 L205.776,33.424 L193.824,33.424 L193.824,35.968 L198.216,35.968 C198.144,38.752 196.584,41.512 193.008,42.736 L194.592,45.208 Z M203.496,54.064 C208.104,54.064 210.96,52.48 210.96,49.792 C210.96,47.08 208.104,45.472 203.496,45.472 C198.864,45.472 196.008,47.08 196.008,49.792 C196.008,52.48 198.864,54.064 203.496,54.064 Z M203.496,51.64 C200.592,51.64 199.152,51.016 199.152,49.792 C199.152,48.544 200.592,47.92 203.496,47.92 C206.304,47.92 207.816,48.52 207.816,49.792 C207.816,51.04 206.304,51.64 203.496,51.64 Z M233.88,45.112 L233.88,31.96 L230.712,31.96 L230.712,37.288 L227.4,37.288 L227.4,39.856 L230.712,39.856 L230.712,45.112 L233.88,45.112 Z M216.888,45.112 C219.48,44.248 221.208,42.448 222.168,40.216 C223.128,42.16 224.784,43.72 227.184,44.512 L228.72,42.04 C225.36,40.936 223.8,38.32 223.728,35.824 L228.024,35.824 L228.024,33.28 L216.144,33.28 L216.144,35.824 L220.488,35.824 C220.368,38.584 218.808,41.392 215.28,42.616 L216.888,45.112 Z M226.416,54.088 C231.096,54.088 233.976,52.528 233.976,49.84 C233.976,47.152 231.096,45.592 226.416,45.592 C221.712,45.592 218.832,47.152 218.832,49.84 C218.832,52.528 221.712,54.088 226.416,54.088 Z M226.416,51.688 C223.464,51.688 222,51.064 222,49.84 C222,48.616 223.464,47.992 226.416,47.992 C229.344,47.992 230.808,48.616 230.808,49.84 C230.808,51.064 229.344,51.688 226.416,51.688 Z M261.888,54.04 L261.888,31.936 L258.888,31.936 L258.888,40.96 L257.208,40.96 L257.208,32.368 L254.256,32.368 L254.256,53.128 L257.208,53.128 L257.208,43.504 L258.888,43.504 L258.888,54.04 L261.888,54.04 Z M253.464,37.816 L253.464,35.296 L249.792,35.296 L249.792,32.56 L246.672,32.56 L246.672,35.296 L242.904,35.296 L242.904,37.816 L253.464,37.816 Z M248.232,49.312 C251.04,49.312 253.08,47.128 253.08,44.056 C253.08,40.96 251.04,38.776 248.232,38.776 C245.424,38.776 243.384,40.96 243.384,44.056 C243.384,47.128 245.424,49.312 248.232,49.312 Z M248.232,46.672 C247.008,46.672 246.168,45.712 246.168,44.056 C246.168,42.4 247.008,41.416 248.232,41.416 C249.456,41.416 250.296,42.4 250.296,44.056 C250.296,45.712 249.456,46.672 248.232,46.672 Z M285.024,51.496 L285.024,48.928 L276.576,48.928 L276.576,44.872 L282.84,44.872 L282.84,33.328 L279.72,33.328 L279.72,36.76 L270.264,36.76 L270.264,33.328 L267.12,33.328 L267.12,44.872 L273.408,44.872 L273.408,48.928 L265.008,48.928 L265.008,51.496 L285.024,51.496 Z M279.72,42.352 L270.264,42.352 L270.264,39.256 L279.72,39.256 L279.72,42.352 Z M305.496,54.04 L305.496,31.936 L302.304,31.936 L302.304,54.04 L305.496,54.04 Z M288.792,50.32 C296.64,46.552 298.92,40.984 298.92,34.24 L288.312,34.24 L288.312,36.76 L295.68,36.76 C295.224,41.656 292.776,45.136 287.136,47.824 L288.792,50.32 Z" id="연말에국토대장정해보기" fill="#FFFFFF" fill-rule="nonzero"></path>
                </g>
                <g id="Group" transform="translate(2262.000000, 0.000000)">
                    <rect id="Rectangle" fill="#202128" x="0" y="0" width="345" height="88" rx="16"></rect>
                    <text id="🚗" font-family="AppleColorEmoji, Apple Color Emoji" font-size="24" font-weight="normal" fill="#FFFFFF">
                        <tspan x="24" y="52">🚗</tspan>
                    </text>
                    <path d="M59.376,45.328 C61.968,44.584 63.672,43 64.632,40.984 C65.664,42.736 67.296,44.104 69.792,44.776 L71.232,42.328 C67.68,41.368 66.144,39.088 66.144,36.76 L66.144,36.688 L70.512,36.688 L70.512,34.192 L66.144,34.192 L66.144,31.888 L62.976,31.888 L62.976,34.192 L58.656,34.192 L58.656,36.688 L62.976,36.688 L62.976,36.76 C62.976,39.256 61.44,41.848 57.888,42.856 L59.376,45.328 Z M76.512,46.984 L76.512,31.96 L73.344,31.96 L73.344,37.816 L69.96,37.816 L69.96,40.384 L73.344,40.384 L73.344,46.984 L76.512,46.984 Z M76.56,53.992 L77.712,51.52 C72.984,50.872 70.752,48.352 70.752,46.072 L70.752,45.76 L67.512,45.76 L67.512,46.072 C67.512,48.184 65.136,50.872 60.504,51.52 L61.68,53.992 C65.256,53.488 67.752,51.856 69.096,49.744 C70.44,51.88 72.888,53.488 76.56,53.992 Z M102.864,54.064 L102.864,43 L106.08,43 L106.08,40.384 L102.864,40.384 L102.864,31.96 L99.696,31.96 L99.696,54.064 L102.864,54.064 Z M86.856,49.912 C89.376,48.688 91.152,46.312 92.136,43.408 C93.12,46.024 94.8,48.232 97.296,49.36 L99.048,46.864 C95.424,45.208 93.672,41.272 93.672,37.912 L93.672,36.688 L98.064,36.688 L98.064,34.072 L85.92,34.072 L85.92,36.688 L90.504,36.688 L90.504,37.912 C90.504,41.56 88.704,45.736 85.08,47.392 L86.856,49.912 Z M127.656,44.872 L127.656,42.352 L119.232,42.352 L119.232,40.528 L125.376,40.528 L125.376,38.008 L113.232,38.008 L113.232,35.416 L125.256,35.416 L125.256,32.896 L110.088,32.896 L110.088,40.528 L116.064,40.528 L116.064,42.352 L107.664,42.352 L107.664,44.872 L127.656,44.872 Z M117.576,54.088 C122.352,54.088 125.256,52.624 125.256,50.032 C125.256,47.416 122.352,45.952 117.576,45.952 C112.8,45.952 109.92,47.416 109.92,50.032 C109.92,52.624 112.8,54.088 117.576,54.088 Z M117.576,51.688 C114.576,51.688 113.112,51.184 113.112,50.032 C113.112,48.904 114.6,48.352 117.576,48.352 C120.552,48.352 122.04,48.904 122.04,50.032 C122.04,51.184 120.576,51.688 117.576,51.688 Z M147.024,54.064 L147.024,43.168 L150.24,43.168 L150.24,40.552 L147.024,40.552 L147.024,31.984 L143.856,31.984 L143.856,54.064 L147.024,54.064 Z M131.04,49.984 C133.536,48.856 135.216,46.72 136.176,44.008 C137.112,46.504 138.648,48.52 141.048,49.6 L142.728,47.2 C139.272,45.544 137.712,41.968 137.712,38.848 L137.712,38.08 L142.104,38.08 L142.104,35.56 L137.736,35.56 L137.736,32.488 L134.568,32.488 L134.568,35.56 L130.08,35.56 L130.08,38.08 L134.568,38.08 L134.568,38.848 C134.568,42.184 132.912,45.904 129.336,47.56 L131.04,49.984 Z M166.032,52.336 C168.528,52.336 170.568,51.376 171.792,50.2 L171.792,42.184 L165.48,42.184 L165.48,45.088 L168.624,45.088 L168.624,48.592 C168.12,49.048 167.256,49.264 166.392,49.264 C162.912,49.264 161.136,46.936 161.136,43.072 C161.136,39.256 163.2,36.952 166.152,36.952 C167.784,36.952 168.768,37.6 169.632,38.44 L171.528,36.184 C170.376,35.008 168.6,33.904 166.032,33.904 C161.328,33.904 157.512,37.336 157.512,43.192 C157.512,49.12 161.16,52.336 166.032,52.336 Z M179.52,52 L186.792,36.52 L186.792,34.168 L174.696,34.168 L174.696,37.12 L183.264,37.12 C183.096,37.336 182.928,37.624 182.76,37.96 L182.76,37.984 C182.736,37.984 182.736,38.008 182.736,38.008 L182.64,38.2 L182.616,38.224 L182.616,38.224 L182.616,38.248 C182.472,38.488 182.256,38.92 182.16,39.088 C180.12,43.48 177.888,47.584 175.848,52 L179.52,52 Z M194.832,52.336 C198.672,52.336 201.528,49.432 201.528,43.096 C201.528,36.712 198.672,33.832 194.832,33.832 C191.088,33.832 188.208,36.712 188.208,43.096 C188.208,49.432 191.088,52.336 194.832,52.336 Z M194.832,49.552 C193.176,49.552 191.568,48.184 191.568,43.096 C191.568,37.984 193.176,36.592 194.832,36.592 C196.584,36.592 198.168,37.984 198.168,43.096 C198.168,48.184 196.584,49.552 194.832,49.552 Z M221.4,34.768 L221.4,32.656 L214.296,32.656 L214.296,34.768 L221.4,34.768 Z M225.6,42.064 L226.68,39.856 C223.68,39.832 220.776,38.992 219.696,37.696 L225.6,37.696 L225.6,35.584 L210.096,35.584 L210.096,37.696 L216.072,37.696 C215.064,38.992 212.232,39.88 208.968,39.856 L210.096,42.064 C213.504,41.896 216.624,40.744 217.848,39.04 C219.12,40.72 222.456,41.848 225.6,42.064 Z M225.912,53.752 L225.912,51.688 L213.216,51.688 L213.216,50.704 L225.072,50.704 L225.072,45.736 L219.216,45.736 L219.216,44.704 L227.52,44.704 L227.52,42.616 L208.2,42.616 L208.2,44.704 L216.408,44.704 L216.408,45.736 L210.384,45.736 L210.384,47.8 L222.288,47.8 L222.288,48.76 L210.384,48.76 L210.384,53.752 L225.912,53.752 Z M245.16,46.504 C245.904,43.672 246.168,39.76 246.072,34.384 L231.024,34.384 L231.024,36.64 L243.24,36.64 C243.312,39.592 243.144,43.696 242.472,46.168 L245.16,46.504 Z M248.28,50.896 L248.28,48.664 L238.704,48.664 L238.704,41.464 L235.896,41.464 L235.896,48.664 L228.96,48.664 L228.96,50.896 L248.28,50.896 Z M267.384,54.064 L267.384,43.216 L270.552,43.216 L270.552,40.6 L267.384,40.6 L267.384,31.96 L264.216,31.96 L264.216,54.064 L267.384,54.064 Z M262.776,37.744 L262.776,35.224 L257.976,35.224 L257.976,32.344 L254.808,32.344 L254.808,35.224 L249.912,35.224 L249.912,37.744 L262.776,37.744 Z M256.416,49.552 C259.608,49.552 261.984,47.392 261.984,44.248 C261.984,41.176 259.608,38.992 256.416,38.992 C253.2,38.992 250.8,41.176 250.8,44.248 C250.8,47.392 253.2,49.552 256.416,49.552 Z M256.416,46.96 C254.88,46.96 253.824,46 253.824,44.272 C253.824,42.544 254.88,41.56 256.416,41.56 C257.952,41.56 258.984,42.592 258.984,44.248 C258.984,45.976 257.952,46.96 256.416,46.96 Z M290.52,54.04 L290.52,31.936 L287.328,31.936 L287.328,54.04 L290.52,54.04 Z M273.816,50.32 C281.664,46.552 283.944,40.984 283.944,34.24 L273.336,34.24 L273.336,36.76 L280.704,36.76 C280.248,41.656 277.8,45.136 272.16,47.824 L273.816,50.32 Z" id="첫자동차G70출고하기" fill="#FFFFFF" fill-rule="nonzero"></path>
                </g>
            </g>
        </g>
    </g>
</svg>