<?xml version="1.0" encoding="UTF-8"?>
<svg width="2607px" height="88px" viewBox="0 0 2607 88" version="1.1" xmlns="http://www.w3.org/2000/svg" xmlns:xlink="http://www.w3.org/1999/xlink">
    <title>card-collection</title>
    <g id="Card" stroke="none" stroke-width="1" fill="none" fill-rule="evenodd">
        <g id="1920/1080" transform="translate(-47.000000, -669.000000)">
            <g id="card-collection" transform="translate(47.000000, 669.000000)">
                <g id="Group">
                    <rect id="Rectangle" fill="#202128" x="0" y="0" width="345" height="88" rx="16"></rect>
                    <text id="🥳" font-family="AppleColorEmoji, Apple Color Emoji" font-size="24" font-weight="normal" fill="#FFFFFF">
                        <tspan x="24" y="52">🥳</tspan>
                    </text>
                    <path d="M76.344,54.112 L76.344,31.936 L73.176,31.936 L73.176,54.112 L76.344,54.112 Z M64.464,49.288 C67.8,49.288 70.272,46.24 70.272,41.368 C70.272,36.52 67.8,33.496 64.464,33.496 C61.128,33.496 58.656,36.52 58.656,41.368 C58.656,46.24 61.128,49.288 64.464,49.288 Z M64.464,46.408 C62.832,46.408 61.704,44.656 61.704,41.368 C61.704,38.08 62.832,36.352 64.464,36.352 C66.096,36.352 67.224,38.08 67.224,41.368 C67.224,44.656 66.096,46.408 64.464,46.408 Z M98.592,48.28 L98.592,31.984 L95.424,31.984 L95.424,37.84 L91.488,37.84 L91.488,33.448 L88.392,33.448 L88.392,36.784 L84.192,36.784 L84.192,33.424 L81.048,33.424 L81.048,44.848 L91.488,44.848 L91.488,40.384 L95.424,40.384 L95.424,48.28 L98.592,48.28 Z M88.392,42.328 L84.192,42.328 L84.192,39.208 L88.392,39.208 L88.392,42.328 Z M99.072,53.68 L99.072,51.16 L87.168,51.16 L87.168,46.696 L84,46.696 L84,53.68 L99.072,53.68 Z M126.12,48.208 L126.12,31.96 L122.952,31.96 L122.952,34.408 L117.6,34.408 L117.6,36.904 L122.952,36.904 L122.952,38.536 L117.6,38.536 L117.6,41.032 L122.952,41.032 L122.952,48.208 L126.12,48.208 Z M110.616,45.376 C113.904,45.376 116.856,45.256 120.12,44.656 L119.808,42.088 C117.096,42.568 114.672,42.712 111.984,42.784 L111.984,33.352 L108.84,33.352 L108.84,45.376 L110.616,45.376 Z M126.624,53.68 L126.624,51.16 L114.72,51.16 L114.72,46.768 L111.552,46.768 L111.552,53.68 L126.624,53.68 Z M149.736,51.568 L149.736,48.976 L141.288,48.976 L141.288,44.368 L147.6,44.368 L147.6,41.824 L135.24,41.824 L135.24,36.016 L147.432,36.016 L147.432,33.472 L132.048,33.472 L132.048,44.368 L138.12,44.368 L138.12,48.976 L129.72,48.976 L129.72,51.568 L149.736,51.568 Z M176.088,45.472 L176.088,31.96 L173.088,31.96 L173.088,37.336 L171.36,37.336 L171.36,32.368 L168.408,32.368 L168.408,44.776 L171.36,44.776 L171.36,39.88 L173.088,39.88 L173.088,45.472 L176.088,45.472 Z M158.616,44.872 C160.656,44.008 162.024,42.472 162.816,40.552 C163.608,42.184 164.88,43.432 166.704,44.176 L168.384,41.776 C165.48,40.624 164.28,38.224 164.28,35.848 L164.28,33.28 L161.232,33.28 L161.232,35.848 C161.232,38.344 160.008,41.08 156.936,42.424 L158.616,44.872 Z M168.6,54.088 C173.232,54.088 176.184,52.528 176.184,49.936 C176.184,47.368 173.232,45.808 168.6,45.808 C163.944,45.808 160.968,47.368 160.968,49.936 C160.968,52.528 163.944,54.088 168.6,54.088 Z M168.6,51.688 C165.696,51.688 164.136,51.112 164.136,49.936 C164.136,48.76 165.696,48.184 168.6,48.184 C171.552,48.184 173.016,48.76 173.016,49.936 C173.016,51.112 171.552,51.688 168.6,51.688 Z M197.688,43.024 L197.688,31.96 L194.496,31.96 L194.496,43.024 L197.688,43.024 Z M185.568,42.712 C188.928,42.712 191.448,40.624 191.448,37.648 C191.448,34.696 188.928,32.608 185.568,32.608 C182.208,32.608 179.64,34.696 179.64,37.648 C179.64,40.624 182.208,42.712 185.568,42.712 Z M185.568,40.144 C183.936,40.144 182.712,39.28 182.712,37.648 C182.712,36.088 183.936,35.152 185.568,35.152 C187.2,35.152 188.376,36.088 188.376,37.648 C188.376,39.28 187.2,40.144 185.568,40.144 Z M198.24,53.824 L198.24,51.352 L186.12,51.352 L186.12,49.96 L197.688,49.96 L197.688,43.936 L182.952,43.936 L182.952,46.36 L194.544,46.36 L194.544,47.704 L182.976,47.704 L182.976,53.824 L198.24,53.824 Z M220.248,48.4 L220.248,31.96 L217.248,31.96 L217.248,48.4 L220.248,48.4 Z M215.808,47.752 L215.808,32.344 L212.856,32.344 L212.856,37.936 L211.488,37.936 C211.032,35.368 209.112,33.568 206.544,33.568 C203.616,33.568 201.48,35.872 201.48,39.136 C201.48,42.424 203.616,44.728 206.544,44.728 C209.04,44.728 210.96,43.048 211.464,40.48 L212.856,40.48 L212.856,47.752 L215.808,47.752 Z M206.544,41.992 C205.2,41.992 204.312,40.96 204.312,39.136 C204.312,37.312 205.2,36.28 206.544,36.28 C207.888,36.28 208.776,37.312 208.776,39.136 C208.776,40.96 207.888,41.992 206.544,41.992 Z M220.8,53.68 L220.8,51.16 L208.536,51.16 L208.536,46.312 L205.368,46.312 L205.368,53.68 L220.8,53.68 Z M246.24,54.088 L246.24,42.928 L249.456,42.928 L249.456,40.312 L246.24,40.312 L246.24,31.984 L243.072,31.984 L243.072,54.088 L246.24,54.088 Z M228.984,49.024 C232.752,49.024 237.768,48.904 242.256,48.136 L242.064,45.832 C241.224,45.952 240.384,46 239.52,46.072 L239.52,36.544 L241.416,36.544 L241.416,34 L229.224,34 L229.224,36.544 L231.12,36.544 L231.12,46.432 L228.648,46.432 L228.984,49.024 Z M234.192,46.36 L234.192,36.544 L236.472,36.544 L236.472,46.288 C235.704,46.312 234.936,46.336 234.192,46.36 Z M269.424,54.088 L269.424,31.96 L266.232,31.96 L266.232,54.088 L269.424,54.088 Z M254.112,49.072 C258.096,49.072 261.168,48.952 264.624,48.448 L264.336,45.928 C261.336,46.384 258.648,46.528 255.36,46.528 L255.36,42.424 L262.464,42.424 L262.464,39.952 L255.36,39.952 L255.36,36.352 L263.376,36.352 L263.376,33.784 L252.192,33.784 L252.192,49.072 L254.112,49.072 Z M290.448,54.064 L290.448,43.216 L293.616,43.216 L293.616,40.6 L290.448,40.6 L290.448,31.96 L287.28,31.96 L287.28,54.064 L290.448,54.064 Z M285.84,37.744 L285.84,35.224 L281.04,35.224 L281.04,32.344 L277.872,32.344 L277.872,35.224 L272.976,35.224 L272.976,37.744 L285.84,37.744 Z M279.48,49.552 C282.672,49.552 285.048,47.392 285.048,44.248 C285.048,41.176 282.672,38.992 279.48,38.992 C276.264,38.992 273.864,41.176 273.864,44.248 C273.864,47.392 276.264,49.552 279.48,49.552 Z M279.48,46.96 C277.944,46.96 276.888,46 276.888,44.272 C276.888,42.544 277.944,41.56 279.48,41.56 C281.016,41.56 282.048,42.592 282.048,44.248 C282.048,45.976 281.016,46.96 279.48,46.96 Z M313.584,54.04 L313.584,31.936 L310.392,31.936 L310.392,54.04 L313.584,54.04 Z M296.88,50.32 C304.728,46.552 307.008,40.984 307.008,34.24 L296.4,34.24 L296.4,36.76 L303.768,36.76 C303.312,41.656 300.864,45.136 295.224,47.824 L296.88,50.32 Z" id="이번년도생일엔파티하기" fill="#FFFFFF" fill-rule="nonzero"></path>
                </g>
                <g id="Group" transform="translate(377.000000, 0.000000)">
                    <rect id="Rectangle" fill="#202128" x="0" y="0" width="345" height="88" rx="16"></rect>
                    <text id="🦷" font-family="AppleColorEmoji, Apple Color Emoji" font-size="24" font-weight="normal" fill="#FFFFFF">
                        <tspan x="24" y="52">🦷</tspan>
                    </text>
                    <path d="M75.336,54.064 L75.336,43.096 L78.552,43.096 L78.552,40.456 L75.336,40.456 L75.336,31.96 L72.168,31.96 L72.168,54.064 L75.336,54.064 Z M59.472,49.528 C61.968,48.304 63.624,45.976 64.584,43.168 C65.52,45.88 67.056,47.944 69.36,49.12 L71.28,46.624 C67.728,44.896 66.168,40.864 66.168,36.88 L66.168,33.664 L62.976,33.664 L62.976,36.88 C62.976,40.984 61.296,45.232 57.576,46.96 L59.472,49.528 Z M97.512,45.232 L97.512,39.712 L100.44,39.712 L100.44,37.12 L97.512,37.12 L97.512,31.984 L94.344,31.984 L94.344,45.232 L97.512,45.232 Z M93.096,43.696 L92.832,41.152 C90.072,41.656 87.624,41.824 84.048,41.824 L84.048,39.904 L90.96,39.904 L90.96,33.256 L80.88,33.256 L80.88,35.8 L87.84,35.8 L87.84,37.552 L80.904,37.552 L80.904,44.368 L82.8,44.368 C87.192,44.368 90.048,44.272 93.096,43.696 Z M90.24,54.088 C94.824,54.088 97.728,52.504 97.728,49.888 C97.728,47.2 94.824,45.688 90.24,45.688 C85.608,45.688 82.752,47.2 82.752,49.888 C82.752,52.504 85.608,54.088 90.24,54.088 Z M90.24,51.664 C87.336,51.664 85.872,51.064 85.872,49.888 C85.872,48.712 87.336,48.112 90.24,48.112 C93.144,48.112 94.608,48.712 94.608,49.888 C94.608,51.064 93.144,51.664 90.24,51.664 Z M120.648,54.04 L120.648,31.936 L117.48,31.936 L117.48,54.04 L120.648,54.04 Z M105.312,48.616 C108.696,48.616 112.344,48.376 116.112,47.584 L115.776,44.944 C112.488,45.592 109.392,45.832 106.488,45.904 L106.488,34.048 L103.344,34.048 L103.344,48.616 L105.312,48.616 Z M149.52,54.04 L149.52,31.936 L146.784,31.936 L146.784,40.528 L145.656,40.528 L145.656,32.296 L142.968,32.296 L142.968,53.056 L145.656,53.056 L145.656,43.072 L146.784,43.072 L146.784,54.04 L149.52,54.04 Z M135.432,48.64 L135.432,34.168 L133.152,34.168 L133.152,38.992 L132.072,38.992 L132.072,34.168 L129.768,34.168 L129.768,48.64 L135.432,48.64 Z M141.984,48.64 L141.984,34.168 L139.704,34.168 L139.704,38.992 L138.576,38.992 L138.576,34.168 L136.32,34.168 L136.32,48.64 L141.984,48.64 Z M133.152,46.12 L132.072,46.12 L132.072,41.464 L133.152,41.464 L133.152,46.12 Z M139.704,46.12 L138.576,46.12 L138.576,41.464 L139.704,41.464 L139.704,46.12 Z M170.208,54.04 L170.208,31.936 L167.016,31.936 L167.016,54.04 L170.208,54.04 Z M153.504,50.32 C161.352,46.552 163.632,40.984 163.632,34.24 L153.024,34.24 L153.024,36.76 L160.392,36.76 C159.936,41.656 157.488,45.136 151.848,47.824 L153.504,50.32 Z M177.912,52.336 L177.912,48.928 L174.408,48.928 L174.408,52.336 L177.912,52.336 Z M184.512,52.336 L184.512,48.928 L181.008,48.928 L181.008,52.336 L184.512,52.336 Z M211.536,51.208 L211.536,49 L203.232,49 L203.232,44.056 L209.184,44.056 L209.184,41.824 L197.52,41.824 L197.52,36.304 L209.064,36.304 L209.064,34.072 L194.712,34.072 L194.712,44.056 L200.424,44.056 L200.424,49 L192.216,49 L192.216,51.208 L211.536,51.208 Z M231.768,48.088 L231.768,31.96 L228.6,31.96 L228.6,37.672 L225.144,37.672 L225.144,40.24 L228.6,40.24 L228.6,48.088 L231.768,48.088 Z M214.752,45.664 C217.344,44.8 219.072,43.072 220.056,40.864 C220.992,42.88 222.648,44.44 225.072,45.232 L226.608,42.76 C223.128,41.608 221.616,38.872 221.616,36.256 L221.616,35.968 L225.912,35.968 L225.912,33.448 L214.032,33.448 L214.032,35.968 L218.376,35.968 L218.376,36.28 C218.376,39.04 216.816,41.992 213.168,43.144 L214.752,45.664 Z M232.272,53.68 L232.272,51.16 L220.368,51.16 L220.368,46.744 L217.2,46.744 L217.2,53.68 L232.272,53.68 Z M239.928,46.912 L240.432,37.096 L240.552,33.76 L237,33.76 L237.12,37.096 L237.624,46.912 L239.928,46.912 Z M240.552,52.336 L240.552,48.928 L237.048,48.928 L237.048,52.336 L240.552,52.336 Z M248.808,46.912 L249.312,37.096 L249.432,33.76 L245.88,33.76 L246,37.096 L246.504,46.912 L248.808,46.912 Z M249.432,52.336 L249.432,48.928 L245.928,48.928 L245.928,52.336 L249.432,52.336 Z M275.88,54.016 L275.88,43 L278.976,43 L278.976,40.384 L275.88,40.384 L275.88,31.936 L272.712,31.936 L272.712,54.016 L275.88,54.016 Z M260.136,50.248 C267.504,46.528 270,40.864 270,34.216 L259.584,34.216 L259.584,36.784 L266.808,36.784 C266.232,41.704 263.52,45.16 258.36,47.824 L260.136,50.248 Z M297.96,54.064 L297.96,43 L301.176,43 L301.176,40.384 L297.96,40.384 L297.96,31.96 L294.792,31.96 L294.792,54.064 L297.96,54.064 Z M281.952,49.912 C284.472,48.688 286.248,46.312 287.232,43.408 C288.216,46.024 289.896,48.232 292.392,49.36 L294.144,46.864 C290.52,45.208 288.768,41.272 288.768,37.912 L288.768,36.688 L293.16,36.688 L293.16,34.072 L281.016,34.072 L281.016,36.688 L285.6,36.688 L285.6,37.912 C285.6,41.56 283.8,45.736 280.176,47.392 L281.952,49.912 Z M307.296,46.912 L307.8,37.096 L307.92,33.76 L304.368,33.76 L304.488,37.096 L304.992,46.912 L307.296,46.912 Z M307.92,52.336 L307.92,48.928 L304.416,48.928 L304.416,52.336 L307.92,52.336 Z" id="사랑니빼기..도전!!가자!" fill="#FFFFFF" fill-rule="nonzero"></path>
                </g>
                <g id="Group" transform="translate(754.000000, 0.000000)">
                    <rect id="Rectangle" fill="#202128" x="0" y="0" width="345" height="88" rx="16"></rect>
                    <text id="👮‍♂️" font-family="AppleColorEmoji, Apple Color Emoji" font-size="24" font-weight="normal" fill="#FFFFFF">
                        <tspan x="24" y="52">👮‍♂️</tspan>
                    </text>
                    <path d="M76.968,35.536 L76.968,33.328 L69.6,33.328 L69.6,31.744 L66.432,31.744 L66.432,33.328 L58.992,33.328 L58.992,35.536 L76.968,35.536 Z M68.016,41.584 C72.96,41.584 75.432,40.648 75.432,38.8 C75.432,36.88 73.104,36.016 68.016,36.016 C62.952,36.016 60.624,36.88 60.624,38.8 C60.624,40.648 63.096,41.584 68.016,41.584 Z M68.3050676,39.5912747 L68.016,39.592 C65.112,39.592 63.984,39.376 63.984,38.8 C63.984,38.224 65.112,38.008 68.016,38.008 C70.968,38.008 72.072,38.224 72.072,38.8 C72.072,39.3568 71.0403733,39.5772 68.3050676,39.5912747 L68.3050676,39.5912747 Z M76.152,53.896 L76.152,51.736 L63.576,51.736 L63.576,50.728 L75.576,50.728 L75.576,45.64 L69.6,45.64 L69.6,44.56 L78,44.56 L78,42.28 L58.032,42.28 L58.032,44.56 L66.432,44.56 L66.432,45.64 L60.312,45.64 L60.312,47.8 L72.36,47.8 L72.36,48.712 L60.336,48.712 L60.336,53.896 L76.152,53.896 Z M98.112,42.04 L98.112,39.64 L85.728,39.64 L85.728,38.344 L97.608,38.344 L97.608,32.488 L82.56,32.488 L82.56,34.888 L94.488,34.888 L94.488,36.112 L82.608,36.112 L82.608,42.04 L98.112,42.04 Z M90.048,54.088 C95.16,54.088 97.8,52.84 97.8,50.512 C97.8,49.336 97.128,48.472 95.76,47.872 L95.76,45.616 L100.128,45.616 L100.128,43.144 L80.112,43.144 L80.112,45.616 L84.456,45.616 L84.456,47.824 C83.016,48.424 82.296,49.312 82.296,50.512 C82.296,52.84 84.936,54.088 90.048,54.088 Z M92.592,47.104 C91.824,47.008 90.984,46.96 90.048,46.96 C89.16,46.96 88.368,47.008 87.624,47.08 L87.624,45.616 L92.592,45.616 L92.592,47.104 Z M90.048,51.76 C86.856,51.76 85.512,51.376 85.512,50.512 C85.512,49.648 86.856,49.264 90.048,49.264 C93.24,49.264 94.608,49.648 94.608,50.512 C94.608,51.376 93.24,51.76 90.048,51.76 Z M119.544,54.064 L119.544,43.216 L122.712,43.216 L122.712,40.6 L119.544,40.6 L119.544,31.96 L116.376,31.96 L116.376,54.064 L119.544,54.064 Z M114.936,37.744 L114.936,35.224 L110.136,35.224 L110.136,32.344 L106.968,32.344 L106.968,35.224 L102.072,35.224 L102.072,37.744 L114.936,37.744 Z M108.576,49.552 C111.768,49.552 114.144,47.392 114.144,44.248 C114.144,41.176 111.768,38.992 108.576,38.992 C105.36,38.992 102.96,41.176 102.96,44.248 C102.96,47.392 105.36,49.552 108.576,49.552 Z M108.576,46.96 C107.04,46.96 105.984,46 105.984,44.272 C105.984,42.544 107.04,41.56 108.576,41.56 C110.112,41.56 111.144,42.592 111.144,44.248 C111.144,45.976 110.112,46.96 108.576,46.96 Z M143.28,54.04 L143.28,31.936 L140.28,31.936 L140.28,54.04 L143.28,54.04 Z M138.576,53.08 L138.576,32.44 L135.624,32.44 L135.624,40.408 L133.152,40.408 C133.704,38.584 133.872,36.688 133.872,34.576 L125.208,34.576 L125.208,37.096 L130.728,37.096 C130.344,41.44 128.4,44.632 123.984,47.248 L125.784,49.48 C128.976,47.656 130.92,45.472 132.168,42.952 L135.624,42.952 L135.624,53.08 L138.576,53.08 Z M153.192,45.208 C158.064,43.84 161.16,41.44 162.528,37.984 L167.112,37.984 L167.112,40.024 L162.24,40.024 L162.24,42.568 L167.112,42.568 L167.112,44.68 L170.28,44.68 L170.28,31.96 L167.112,31.96 L167.112,35.464 L163.152,35.464 C163.248,34.816 163.296,34.144 163.296,33.448 L153.168,33.448 L153.168,35.992 L159.84,35.992 C159.432,38.992 157.032,41.368 151.968,42.712 L153.192,45.208 Z M162.984,53.944 C167.496,53.944 170.424,52.216 170.424,49.456 C170.424,46.696 167.496,44.968 162.984,44.968 C158.472,44.968 155.52,46.696 155.52,49.456 C155.52,52.216 158.472,53.944 162.984,53.944 Z M162.984,51.496 C160.176,51.496 158.64,50.8 158.64,49.456 C158.64,48.112 160.176,47.416 162.984,47.416 C165.696,47.416 167.304,48.112 167.304,49.456 C167.304,50.8 165.696,51.496 162.984,51.496 Z M175.056,43.6 C177.672,43 179.496,41.68 180.48,39.856 C181.512,41.488 183.264,42.664 185.784,43.24 L187.104,40.84 C183.72,40.144 182.064,38.2 181.992,36.352 L186.36,36.352 L186.36,33.856 L181.992,33.856 L181.992,31.912 L178.824,31.912 L178.824,33.856 L174.504,33.856 L174.504,36.352 L178.824,36.352 C178.704,38.416 177.168,40.408 173.688,41.176 L175.056,43.6 Z M191.28,43.408 L191.28,38.968 L194.184,38.968 L194.184,36.376 L191.28,36.376 L191.28,31.96 L188.112,31.96 L188.112,43.408 L191.28,43.408 Z M191.904,53.896 L191.904,51.52 L179.856,51.52 L179.856,50.2 L191.28,50.2 L191.28,44.32 L176.688,44.32 L176.688,46.72 L188.16,46.72 L188.16,47.968 L176.712,47.968 L176.712,53.896 L191.904,53.896 Z M218.784,53.896 L218.784,32.512 L215.976,32.512 L215.976,53.896 L218.784,53.896 Z M202.92,49.504 C205.128,48.304 207.336,45.592 208.032,43.144 C208.752,45.376 210.984,47.968 212.736,49.048 L214.368,46.936 C211.128,44.848 209.424,41.656 209.424,37.432 L209.424,34.312 L206.52,34.312 L206.52,37.576 C206.52,41.824 204.672,45.208 201.216,47.44 L202.92,49.504 Z M235.152,36.376 L235.152,33.904 L230.256,33.904 L230.256,31.792 L227.088,31.792 L227.088,33.904 L222.216,33.904 L222.216,36.376 L235.152,36.376 Z M240.648,45.304 L240.648,31.96 L237.48,31.96 L237.48,38.416 L234.72,38.416 L234.72,40.984 L237.48,40.984 L237.48,45.304 L240.648,45.304 Z M228.696,45.064 C231.792,45.064 234,43.456 234,41.08 C234,38.704 231.792,37.12 228.696,37.12 C225.6,37.12 223.392,38.704 223.392,41.08 C223.392,43.456 225.6,45.064 228.696,45.064 Z M228.696,42.736 C227.352,42.736 226.416,42.16 226.416,41.08 C226.416,40.024 227.352,39.448 228.696,39.448 C230.04,39.448 230.976,40.024 230.976,41.08 C230.976,42.16 230.04,42.736 228.696,42.736 Z M240.648,53.8 L240.648,46.24 L225.936,46.24 L225.936,53.8 L240.648,53.8 Z M237.552,51.328 L229.056,51.328 L229.056,48.736 L237.552,48.736 L237.552,51.328 Z M267.144,39.856 L267.144,32.344 L264,32.344 L264,33.88 L255.384,33.88 L255.384,32.344 L252.24,32.344 L252.24,39.856 L267.144,39.856 Z M264,37.504 L255.384,37.504 L255.384,36.184 L264,36.184 L264,37.504 Z M267.792,53.896 L267.792,51.664 L255.264,51.664 L255.264,50.488 L267.024,50.488 L267.024,48.376 L255.264,48.376 L255.264,47.272 L267.432,47.272 L267.432,45.064 L261.24,45.064 L261.24,43.576 L269.688,43.576 L269.688,41.08 L249.696,41.08 L249.696,43.576 L258.072,43.576 L258.072,45.064 L252.12,45.064 L252.12,53.896 L267.792,53.896 Z M290.184,54.04 L290.184,31.936 L286.992,31.936 L286.992,54.04 L290.184,54.04 Z M273.48,50.32 C281.328,46.552 283.608,40.984 283.608,34.24 L273,34.24 L273,36.76 L280.368,36.76 C279.912,41.656 277.464,45.136 271.824,47.824 L273.48,50.32 Z" id="훌륭하게경찰시험붙기" fill="#FFFFFF" fill-rule="nonzero"></path>
                </g>
                <g id="Group" transform="translate(1131.000000, 0.000000)">
                    <rect id="Rectangle" fill="#202128" x="0" y="0" width="345" height="88" rx="16"></rect>
                    <text id="👨‍💻" font-family="AppleColorEmoji, Apple Color Emoji" font-size="24" font-weight="normal" fill="#FFFFFF">
                        <tspan x="24" y="52">👨‍💻</tspan>
                    </text>
                    <path d="M69.888,52 L69.888,49.336 L66.792,49.336 L66.792,34.048 L63.96,34.048 L58.776,38.512 L60.672,40.672 L63.6,38.008 L63.504,39.568 L63.504,49.336 L60,49.336 L60,52 L69.888,52 Z M90.696,43.024 L90.696,31.96 L87.504,31.96 L87.504,43.024 L90.696,43.024 Z M78.576,42.712 C81.936,42.712 84.456,40.624 84.456,37.648 C84.456,34.696 81.936,32.608 78.576,32.608 C75.216,32.608 72.648,34.696 72.648,37.648 C72.648,40.624 75.216,42.712 78.576,42.712 Z M78.576,40.144 C76.944,40.144 75.72,39.28 75.72,37.648 C75.72,36.088 76.944,35.152 78.576,35.152 C80.208,35.152 81.384,36.088 81.384,37.648 C81.384,39.28 80.208,40.144 78.576,40.144 Z M91.248,53.824 L91.248,51.352 L79.128,51.352 L79.128,49.96 L90.696,49.96 L90.696,43.936 L75.96,43.936 L75.96,46.36 L87.552,46.36 L87.552,47.704 L75.984,47.704 L75.984,53.824 L91.248,53.824 Z M111.72,52 L111.72,49.336 L108.624,49.336 L108.624,34.048 L105.792,34.048 L100.608,38.512 L102.504,40.672 L105.432,38.008 L105.336,39.568 L105.336,49.336 L101.832,49.336 L101.832,52 L111.72,52 Z M132.648,54.064 L132.648,31.96 L129.48,31.96 L129.48,40.432 L125.352,40.432 L125.352,43 L129.48,43 L129.48,54.064 L132.648,54.064 Z M115.704,50.728 C123.624,46.576 125.4,40.864 125.4,34.072 L115.272,34.072 L115.272,36.592 L122.256,36.592 C122.16,37.648 121.992,38.608 121.776,39.544 L114.096,39.976 L114.504,42.64 L120.816,42.064 C119.544,44.488 117.456,46.504 113.976,48.328 L115.704,50.728 Z M154.608,46.672 L154.608,31.96 L151.416,31.96 L151.416,46.672 L154.608,46.672 Z M148.08,43.912 L148.08,33.712 L137.352,33.712 L137.352,43.912 L148.08,43.912 Z M144.984,41.392 L140.472,41.392 L140.472,36.208 L144.984,36.208 L144.984,41.392 Z M154.464,53.992 L155.688,51.544 C150.96,50.896 148.752,48.376 148.752,45.976 L148.752,45.568 L145.488,45.568 L145.488,45.976 C145.488,48.376 143.256,50.896 138.528,51.544 L139.728,53.992 C143.304,53.416 145.776,51.88 147.12,49.744 C148.464,51.88 150.888,53.416 154.464,53.992 Z M180.336,41.992 L180.336,33.352 L165.936,33.352 L165.936,41.992 L180.336,41.992 Z M177.552,39.76 L168.744,39.76 L168.744,35.584 L177.552,35.584 L177.552,39.76 Z M174.48,53.92 L174.48,46.816 L182.784,46.816 L182.784,44.584 L163.464,44.584 L163.464,46.816 L171.672,46.816 L171.672,53.92 L174.48,53.92 Z M186.552,45.016 C190.416,44.32 193.176,42.472 194.544,39.76 C195.984,42.352 198.576,44.2 202.632,44.896 L203.832,42.4 C199.128,41.704 196.488,39.04 196.224,36.16 L202.848,36.16 L202.848,33.64 L186.192,33.64 L186.192,36.16 L192.816,36.16 C192.504,39.04 190.008,41.824 185.328,42.52 L186.552,45.016 Z M204.552,51.496 L204.552,48.928 L196.128,48.928 L196.128,44.056 L192.96,44.056 L192.96,48.928 L184.536,48.928 L184.536,51.496 L204.552,51.496 Z M225.096,48.112 L225.096,31.96 L221.928,31.96 L221.928,38.392 L218.112,38.392 L218.112,40.96 L221.928,40.96 L221.928,48.112 L225.096,48.112 Z M208.176,46 C214.584,43.96 218.304,39.592 218.304,33.616 L208.032,33.616 L208.032,36.136 L214.92,36.136 C214.368,39.424 211.68,42.016 206.88,43.456 L208.176,46 Z M225.648,53.68 L225.648,51.16 L213.816,51.16 L213.816,46.528 L210.648,46.528 L210.648,53.68 L225.648,53.68 Z M250.536,43.264 L250.536,39.064 L253.584,39.064 L253.584,36.76 L250.536,36.76 L250.536,32.512 L247.704,32.512 L247.704,43.264 L250.536,43.264 Z M236.616,42.76 C240.576,42.76 244.032,42.52 246.048,42.016 C245.904,41.32 245.784,40.576 245.664,39.856 C243.456,40.36 240.456,40.504 237.312,40.528 L237.312,35.92 L244.056,35.92 L244.056,33.688 L234.528,33.688 L234.528,42.76 L236.616,42.76 Z M251.16,53.728 L251.16,51.472 L239.376,51.472 L239.376,50.032 L250.536,50.032 L250.536,44.296 L236.424,44.296 L236.424,46.504 L247.704,46.504 L247.704,47.992 L236.592,47.992 L236.592,53.728 L251.16,53.728 Z M273.384,44.92 L273.384,31.96 L270.216,31.96 L270.216,35.992 L266.184,35.992 L266.184,38.56 L270.216,38.56 L270.216,44.92 L273.384,44.92 Z M256.368,44.872 C258.984,43.984 260.736,42.256 261.72,39.952 C262.656,41.968 264.216,43.432 266.544,44.224 L268.2,41.728 C264.672,40.576 263.256,37.912 263.256,34.936 L263.256,33.112 L260.04,33.112 L260.04,35.08 C260.04,38.152 258.48,41.104 254.712,42.328 L256.368,44.872 Z M265.92,54.064 C270.6,54.064 273.48,52.48 273.48,49.792 C273.48,47.032 270.6,45.472 265.92,45.472 C261.216,45.472 258.336,47.032 258.336,49.792 C258.336,52.48 261.216,54.064 265.92,54.064 Z M265.92,51.64 C262.968,51.64 261.504,51.016 261.504,49.792 C261.504,48.544 262.968,47.92 265.92,47.92 C268.848,47.92 270.312,48.544 270.312,49.792 C270.312,51.016 268.848,51.64 265.92,51.64 Z M294.336,54.064 L294.336,43.216 L297.504,43.216 L297.504,40.6 L294.336,40.6 L294.336,31.96 L291.168,31.96 L291.168,54.064 L294.336,54.064 Z M289.728,37.744 L289.728,35.224 L284.928,35.224 L284.928,32.344 L281.76,32.344 L281.76,35.224 L276.864,35.224 L276.864,37.744 L289.728,37.744 Z M283.368,49.552 C286.56,49.552 288.936,47.392 288.936,44.248 C288.936,41.176 286.56,38.992 283.368,38.992 C280.152,38.992 277.752,41.176 277.752,44.248 C277.752,47.392 280.152,49.552 283.368,49.552 Z M283.368,46.96 C281.832,46.96 280.776,46 280.776,44.272 C280.776,42.544 281.832,41.56 283.368,41.56 C284.904,41.56 285.936,42.592 285.936,44.248 C285.936,45.976 284.904,46.96 283.368,46.96 Z M317.472,54.04 L317.472,31.936 L314.28,31.936 L314.28,54.04 L317.472,54.04 Z M300.768,50.32 C308.616,46.552 310.896,40.984 310.896,34.24 L300.288,34.24 L300.288,36.76 L307.656,36.76 C307.2,41.656 304.752,45.136 299.112,47.824 L300.768,50.32 Z" id="1일1커밋무조건달성하기" fill="#FFFFFF" fill-rule="nonzero"></path>
                </g>
                <g id="Group" transform="translate(1508.000000, 0.000000)">
                    <rect id="Rectangle" fill="#202128" x="0" y="0" width="345" height="88" rx="16"></rect>
                    <text id="👔" font-family="AppleColorEmoji, Apple Color Emoji" font-size="24" font-weight="normal" fill="#FFFFFF">
                        <tspan x="24" y="52">👔</tspan>
                    </text>
                    <path d="M75.384,40.648 C76.08,37.936 76.08,35.848 76.08,34.216 L76.08,32.848 L68.184,32.848 L68.184,35.392 L73.008,35.392 C72.936,36.736 72.864,38.248 72.312,40.288 L75.384,40.648 Z M65.352,40.672 C66.504,37.6 66.504,35.2 66.504,33.832 L66.504,32.848 L59.664,32.848 L59.664,35.392 L63.384,35.392 C63.312,36.616 63.048,38.176 62.304,40.216 L65.352,40.672 Z M77.976,44.536 L77.976,41.992 L69.96,41.992 L69.96,38.152 L66.864,38.152 L66.864,41.992 L58.08,41.992 L58.08,44.536 L77.976,44.536 Z M75.48,53.968 L75.48,46.312 L60.192,46.312 L60.192,48.808 L72.312,48.808 L72.312,53.968 L75.48,53.968 Z M102.96,48.232 L102.96,40.792 L105.888,40.792 L105.888,38.2 L102.96,38.2 L102.96,31.96 L99.792,31.96 L99.792,48.232 L102.96,48.232 Z M96.792,44.776 L96.792,33.544 L93.672,33.544 L93.672,36.688 L89.328,36.688 L89.328,33.544 L86.208,33.544 L86.208,44.776 L96.792,44.776 Z M93.672,42.28 L89.328,42.28 L89.328,39.136 L93.672,39.136 L93.672,42.28 Z M103.752,53.68 L103.752,51.16 L91.872,51.16 L91.872,46.624 L88.704,46.624 L88.704,53.68 L103.752,53.68 Z M131.568,48.208 L131.568,31.96 L128.4,31.96 L128.4,34.408 L123.048,34.408 L123.048,36.904 L128.4,36.904 L128.4,38.536 L123.048,38.536 L123.048,41.032 L128.4,41.032 L128.4,48.208 L131.568,48.208 Z M116.064,45.376 C119.352,45.376 122.304,45.256 125.568,44.656 L125.256,42.088 C122.544,42.568 120.12,42.712 117.432,42.784 L117.432,33.352 L114.288,33.352 L114.288,45.376 L116.064,45.376 Z M132.072,53.68 L132.072,51.16 L120.168,51.16 L120.168,46.768 L117,46.768 L117,53.68 L132.072,53.68 Z M158.016,48.04 L158.016,40.888 L160.944,40.888 L160.944,38.296 L158.016,38.296 L158.016,31.96 L154.848,31.96 L154.848,48.04 L158.016,48.04 Z M146.784,44.608 C150.144,44.608 152.76,42.232 152.76,38.992 C152.76,35.728 150.144,33.376 146.784,33.376 C143.4,33.376 140.784,35.728 140.784,38.992 C140.784,42.232 143.4,44.608 146.784,44.608 Z M146.784,41.872 C145.128,41.872 143.88,40.816 143.88,38.992 C143.88,37.168 145.128,36.112 146.784,36.112 C148.416,36.112 149.688,37.168 149.688,38.992 C149.688,40.816 148.416,41.872 146.784,41.872 Z M158.808,53.68 L158.808,51.16 L146.928,51.16 L146.928,46.384 L143.76,46.384 L143.76,53.68 L158.808,53.68 Z M181.656,54.04 L181.656,31.936 L178.656,31.936 L178.656,54.04 L181.656,54.04 Z M177.12,53.08 L177.12,32.32 L174.168,32.32 L174.168,40.096 L172.416,40.096 C172.056,35.776 170.28,33.52 167.664,33.52 C164.736,33.52 162.888,36.544 162.888,41.536 C162.888,46.552 164.736,49.576 167.664,49.576 C170.376,49.576 172.152,47.008 172.44,42.664 L174.168,42.664 L174.168,53.08 L177.12,53.08 Z M167.664,46.6 C166.44,46.6 165.744,45.016 165.744,41.536 C165.744,38.152 166.44,36.496 167.664,36.496 C168.888,36.496 169.584,38.152 169.584,41.536 C169.584,45.016 168.888,46.6 167.664,46.6 Z M208.728,54.064 L208.728,31.96 L205.56,31.96 L205.56,54.064 L208.728,54.064 Z M192.288,43.24 C194.88,42.688 196.608,41.512 197.592,39.88 C198.576,41.32 200.208,42.424 202.704,42.904 L203.928,40.456 C200.688,39.88 199.2,38.344 199.104,36.592 L203.424,36.592 L203.424,34.144 L199.104,34.144 L199.104,31.984 L195.936,31.984 L195.936,34.144 L191.616,34.144 L191.616,36.592 L195.936,36.592 C195.84,38.488 194.352,40.144 191.016,40.792 L192.288,43.24 Z M199.08,53.392 L199.08,46.48 C200.904,46.312 202.68,46.168 204.504,45.808 L204.312,43.528 C199.68,44.176 194.328,44.176 190.296,44.176 L190.68,46.744 C192.312,46.744 193.992,46.744 195.912,46.672 L195.912,53.392 L199.08,53.392 Z M230.784,43.84 L230.784,31.96 L227.616,31.96 L227.616,36.832 L224.088,36.832 C223.44,34.456 221.232,32.872 218.4,32.872 C215.088,32.872 212.592,35.08 212.592,38.152 C212.592,41.224 215.088,43.432 218.4,43.432 C221.232,43.432 223.536,41.776 224.112,39.4 L227.616,39.4 L227.616,43.84 L230.784,43.84 Z M218.4,40.792 C216.768,40.792 215.616,39.808 215.616,38.152 C215.616,36.496 216.768,35.512 218.4,35.512 C220.032,35.512 221.208,36.496 221.208,38.152 C221.208,39.808 220.032,40.792 218.4,40.792 Z M230.784,53.8 L230.784,44.8 L227.64,44.8 L227.64,46.912 L219.288,46.912 L219.288,44.8 L216.144,44.8 L216.144,53.8 L230.784,53.8 Z M227.64,51.304 L219.288,51.304 L219.288,49.312 L227.64,49.312 L227.64,51.304 Z M251.736,54.064 L251.736,43.216 L254.904,43.216 L254.904,40.6 L251.736,40.6 L251.736,31.96 L248.568,31.96 L248.568,54.064 L251.736,54.064 Z M247.128,37.744 L247.128,35.224 L242.328,35.224 L242.328,32.344 L239.16,32.344 L239.16,35.224 L234.264,35.224 L234.264,37.744 L247.128,37.744 Z M240.768,49.552 C243.96,49.552 246.336,47.392 246.336,44.248 C246.336,41.176 243.96,38.992 240.768,38.992 C237.552,38.992 235.152,41.176 235.152,44.248 C235.152,47.392 237.552,49.552 240.768,49.552 Z M240.768,46.96 C239.232,46.96 238.176,46 238.176,44.272 C238.176,42.544 239.232,41.56 240.768,41.56 C242.304,41.56 243.336,42.592 243.336,44.248 C243.336,45.976 242.304,46.96 240.768,46.96 Z M274.872,54.04 L274.872,31.936 L271.68,31.936 L271.68,54.04 L274.872,54.04 Z M258.168,50.32 C266.016,46.552 268.296,40.984 268.296,34.24 L257.688,34.24 L257.688,36.76 L265.056,36.76 C264.6,41.656 262.152,45.136 256.512,47.824 L258.168,50.32 Z" id="꼭반년안에취업하기" fill="#FFFFFF" fill-rule="nonzero"></path>
                </g>
                <g id="Group" transform="translate(1885.000000, 0.000000)">
                    <rect id="Rectangle" fill="#202128" x="0" y="0" width="345" height="88" rx="16"></rect>
                    <text id="🪖" font-family="AppleColorEmoji, Apple Color Emoji" font-size="24" font-weight="normal" fill="#FFFFFF">
                        <tspan x="24" y="52">🪖</tspan>
                    </text>
                    <path d="M69.792,48.496 L69.792,43.816 L78.048,43.816 L78.048,41.272 L75.264,41.272 C75.72,38.68 75.72,36.736 75.72,34.912 L75.72,32.968 L60.504,32.968 L60.504,35.512 L72.6,35.512 C72.6,37.24 72.552,38.968 72.096,41.272 L58.032,41.272 L58.032,43.816 L66.624,43.816 L66.624,48.496 L69.792,48.496 Z M76.032,53.68 L76.032,51.16 L63.528,51.16 L63.528,46.552 L60.36,46.552 L60.36,53.68 L76.032,53.68 Z M99.072,54.064 L99.072,31.936 L96.072,31.936 L96.072,40.456 L94.08,40.456 L94.08,32.368 L91.128,32.368 L91.128,53.032 L94.08,53.032 L94.08,43 L96.072,43 L96.072,54.064 L99.072,54.064 Z M82.272,49.096 C85.08,49.096 87.456,49 90.144,48.496 L89.904,45.928 C87.792,46.312 85.968,46.408 83.856,46.48 L83.856,37.072 L88.92,37.072 L88.92,34.504 L80.736,34.504 L80.736,49.096 L82.272,49.096 Z M106.224,52.336 L106.224,48.928 L102.72,48.928 L102.72,52.336 L106.224,52.336 Z M112.824,52.336 L112.824,48.928 L109.32,48.928 L109.32,52.336 L112.824,52.336 Z M138.144,54.064 L138.144,43 L141.36,43 L141.36,40.384 L138.144,40.384 L138.144,31.96 L134.976,31.96 L134.976,54.064 L138.144,54.064 Z M122.136,49.912 C124.656,48.688 126.432,46.312 127.416,43.408 C128.4,46.024 130.08,48.232 132.576,49.36 L134.328,46.864 C130.704,45.208 128.952,41.272 128.952,37.912 L128.952,36.688 L133.344,36.688 L133.344,34.072 L121.2,34.072 L121.2,36.688 L125.784,36.688 L125.784,37.912 C125.784,41.56 123.984,45.736 120.36,47.392 L122.136,49.912 Z M161.28,47.944 L161.28,31.96 L158.088,31.96 L158.088,47.944 L161.28,47.944 Z M144.624,45.592 C147.216,44.752 148.968,43.096 149.952,40.888 C150.984,42.904 152.592,44.44 155.088,45.208 L156.696,42.784 C153.144,41.632 151.512,38.872 151.512,36.304 L151.512,36.04 L155.88,36.04 L155.88,33.544 L143.856,33.544 L143.856,36.04 L148.296,36.04 L148.296,36.304 C148.296,39.064 146.664,41.968 143.016,43.12 L144.624,45.592 Z M161.832,53.68 L161.832,51.16 L149.736,51.16 L149.736,46.504 L146.568,46.504 L146.568,53.68 L161.832,53.68 Z M188.808,43.84 L188.808,31.96 L185.616,31.96 L185.616,43.84 L188.808,43.84 Z M176.784,43.312 C180.216,43.312 182.784,41.152 182.784,38.08 C182.784,35.056 180.216,32.872 176.784,32.872 C173.352,32.872 170.76,35.056 170.76,38.08 C170.76,41.152 173.352,43.312 176.784,43.312 Z M176.784,40.696 C175.056,40.696 173.856,39.736 173.856,38.08 C173.856,36.448 175.056,35.488 176.784,35.488 C178.512,35.488 179.688,36.448 179.688,38.08 C179.688,39.736 178.512,40.696 176.784,40.696 Z M188.808,53.8 L188.808,44.8 L185.664,44.8 L185.664,46.864 L177.264,46.864 L177.264,44.8 L174.12,44.8 L174.12,53.8 L188.808,53.8 Z M185.664,51.304 L177.264,51.304 L177.264,49.288 L185.664,49.288 L185.664,51.304 Z M211.488,54.064 L211.488,31.936 L208.488,31.936 L208.488,40.456 L206.496,40.456 L206.496,32.368 L203.544,32.368 L203.544,53.032 L206.496,53.032 L206.496,43 L208.488,43 L208.488,54.064 L211.488,54.064 Z M194.688,49.096 C197.496,49.096 199.872,49 202.56,48.496 L202.32,45.928 C200.208,46.312 198.384,46.408 196.272,46.48 L196.272,37.072 L201.336,37.072 L201.336,34.504 L193.152,34.504 L193.152,49.096 L194.688,49.096 Z M218.64,52.336 L218.64,48.928 L215.136,48.928 L215.136,52.336 L218.64,52.336 Z M225.24,52.336 L225.24,48.928 L221.736,48.928 L221.736,52.336 L225.24,52.336 Z M245.16,54.064 L245.16,43.216 L248.328,43.216 L248.328,40.6 L245.16,40.6 L245.16,31.96 L241.992,31.96 L241.992,54.064 L245.16,54.064 Z M240.552,37.744 L240.552,35.224 L235.752,35.224 L235.752,32.344 L232.584,32.344 L232.584,35.224 L227.688,35.224 L227.688,37.744 L240.552,37.744 Z M234.192,49.552 C237.384,49.552 239.76,47.392 239.76,44.248 C239.76,41.176 237.384,38.992 234.192,38.992 C230.976,38.992 228.576,41.176 228.576,44.248 C228.576,47.392 230.976,49.552 234.192,49.552 Z M234.192,46.96 C232.656,46.96 231.6,46 231.6,44.272 C231.6,42.544 232.656,41.56 234.192,41.56 C235.728,41.56 236.76,42.592 236.76,44.248 C236.76,45.976 235.728,46.96 234.192,46.96 Z M268.296,54.04 L268.296,31.936 L265.104,31.936 L265.104,54.04 L268.296,54.04 Z M251.592,50.32 C259.44,46.552 261.72,40.984 261.72,34.24 L251.112,34.24 L251.112,36.76 L258.48,36.76 C258.024,41.656 255.576,45.136 249.936,47.824 L251.592,50.32 Z M276,52.336 L276,48.928 L272.496,48.928 L272.496,52.336 L276,52.336 Z M282.6,52.336 L282.6,48.928 L279.096,48.928 L279.096,52.336 L282.6,52.336 Z M302.52,40.648 L302.52,38.08 L296.856,38.08 L296.856,35.344 L293.688,35.344 L293.688,38.08 L287.952,38.08 L287.952,40.648 L302.52,40.648 Z M295.272,50.416 C298.608,50.416 301.056,48.592 301.056,46.096 C301.056,43.6 298.608,41.776 295.272,41.776 C291.936,41.776 289.464,43.6 289.464,46.096 C289.464,48.592 291.936,50.416 295.272,50.416 Z M295.272,47.752 C293.808,47.752 292.704,47.224 292.704,46.096 C292.704,44.968 293.808,44.44 295.272,44.44 C296.712,44.44 297.84,44.968 297.84,46.096 C297.84,47.224 296.712,47.752 295.272,47.752 Z M311.616,52 L311.616,43.984 C312.384,42.04 313.656,41.344 314.712,41.344 C315.264,41.344 315.648,41.392 316.104,41.56 L316.728,38.512 C316.32,38.344 315.888,38.224 315.144,38.224 C313.704,38.224 312.312,39.184 311.328,40.936 L311.232,40.936 L310.992,38.56 L308.112,38.56 L308.112,52 L311.616,52 Z" id="군대..자진입대..하기..ㅎr" fill="#FFFFFF" fill-rule="nonzero"></path>
                </g>
                <g id="Group" transform="translate(2262.000000, 0.000000)">
                    <rect id="Rectangle" fill="#202128" x="0" y="0" width="345" height="88" rx="16"></rect>
                    <text id="🐠" font-family="AppleColorEmoji, Apple Color Emoji" font-size="24" font-weight="normal" fill="#FFFFFF">
                        <tspan x="24" y="52">🐠</tspan>
                    </text>
                    <path d="M78,43.408 L78,40.936 L69.552,40.936 L69.552,39.64 C73.872,39.376 76.032,38.128 76.032,35.92 C76.032,33.496 73.272,32.152 68.016,32.152 C62.808,32.152 60.024,33.496 60.024,35.92 C60.024,38.104 62.136,39.352 66.384,39.64 L66.384,40.936 L58.032,40.936 L58.032,43.408 L78,43.408 Z M68.016,37.384 C64.824,37.384 63.312,36.952 63.312,35.92 C63.312,34.936 64.824,34.48 68.016,34.48 C71.304,34.48 72.744,34.936 72.744,35.92 C72.744,36.952 71.304,37.384 68.016,37.384 Z M76.152,53.896 L76.152,51.52 L63.48,51.52 L63.48,50.272 L75.576,50.272 L75.576,44.584 L60.312,44.584 L60.312,46.936 L72.456,46.936 L72.456,48.088 L60.336,48.088 L60.336,53.896 L76.152,53.896 Z M99.072,54.04 L99.072,31.936 L96.072,31.936 L96.072,40.96 L94.392,40.96 L94.392,32.368 L91.44,32.368 L91.44,53.128 L94.392,53.128 L94.392,43.504 L96.072,43.504 L96.072,54.04 L99.072,54.04 Z M90.648,37.816 L90.648,35.296 L86.976,35.296 L86.976,32.56 L83.856,32.56 L83.856,35.296 L80.088,35.296 L80.088,37.816 L90.648,37.816 Z M85.416,49.312 C88.224,49.312 90.264,47.128 90.264,44.056 C90.264,40.96 88.224,38.776 85.416,38.776 C82.608,38.776 80.568,40.96 80.568,44.056 C80.568,47.128 82.608,49.312 85.416,49.312 Z M85.416,46.672 C84.192,46.672 83.352,45.712 83.352,44.056 C83.352,42.4 84.192,41.416 85.416,41.416 C86.64,41.416 87.48,42.4 87.48,44.056 C87.48,45.712 86.64,46.672 85.416,46.672 Z M120,40.456 L120,37.936 L107.832,37.936 L107.832,32.752 L104.664,32.752 L104.664,40.456 L120,40.456 Z M122.208,45.256 L122.208,42.712 L102.192,42.712 L102.192,45.256 L122.208,45.256 Z M120.12,53.608 L120.12,51.064 L107.64,51.064 L107.64,47.008 L104.448,47.008 L104.448,53.608 L120.12,53.608 Z M147.072,40.648 C147.768,37.936 147.768,35.848 147.768,34.216 L147.768,32.848 L139.872,32.848 L139.872,35.392 L144.696,35.392 C144.624,36.736 144.552,38.248 144,40.288 L147.072,40.648 Z M137.04,40.672 C138.192,37.6 138.192,35.2 138.192,33.832 L138.192,32.848 L131.352,32.848 L131.352,35.392 L135.072,35.392 C135,36.616 134.736,38.176 133.992,40.216 L137.04,40.672 Z M149.664,44.536 L149.664,41.992 L141.648,41.992 L141.648,38.152 L138.552,38.152 L138.552,41.992 L129.768,41.992 L129.768,44.536 L149.664,44.536 Z M147.168,53.968 L147.168,46.312 L131.88,46.312 L131.88,48.808 L144,48.808 L144,53.968 L147.168,53.968 Z M174.552,54.064 L174.552,42.832 L177.768,42.832 L177.768,40.192 L174.552,40.192 L174.552,31.984 L171.384,31.984 L171.384,54.064 L174.552,54.064 Z M168.648,48.952 L168.648,33.712 L165.504,33.712 L165.504,39.064 L161.064,39.064 L161.064,33.712 L157.92,33.712 L157.92,48.952 L168.648,48.952 Z M165.504,46.432 L161.064,46.432 L161.064,41.536 L165.504,41.536 L165.504,46.432 Z M196.632,54.112 L196.632,42.736 L199.848,42.736 L199.848,40.12 L196.632,40.12 L196.632,31.96 L193.464,31.96 L193.464,54.112 L196.632,54.112 Z M182.064,48.808 C185.904,48.808 188.928,48.664 192.264,48.088 L191.952,45.472 C189.096,45.952 186.48,46.144 183.336,46.168 L183.336,36.568 L190.488,36.568 L190.488,34 L180.168,34 L180.168,48.808 L182.064,48.808 Z M224.256,44.272 L224.256,39.472 L227.184,39.472 L227.184,36.88 L224.256,36.88 L224.256,31.936 L221.088,31.936 L221.088,44.272 L224.256,44.272 Z M209.592,43.144 C212.688,43.144 216,42.928 219.576,42.232 L219.216,39.688 C216.216,40.264 213.504,40.456 210.912,40.528 L210.912,33.184 L207.744,33.184 L207.744,43.144 L209.592,43.144 Z M216.216,54.088 L216.216,45.256 L209.208,45.256 L209.208,47.776 L213.096,47.776 L213.096,54.088 L216.216,54.088 Z M224.256,54.088 L224.256,45.256 L217.2,45.256 L217.2,47.8 L221.112,47.8 L221.112,54.088 L224.256,54.088 Z M247.248,54.112 L247.248,31.936 L244.08,31.936 L244.08,54.112 L247.248,54.112 Z M230.544,49.72 C233.256,48.472 234.984,46.144 235.968,43.144 C236.952,45.856 238.608,48.04 241.2,49.192 L243,46.624 C239.256,45.016 237.504,40.984 237.504,36.88 L237.504,33.664 L234.336,33.664 L234.336,36.88 C234.336,41.2 232.512,45.424 228.648,47.104 L230.544,49.72 Z M273.768,54.016 L273.768,43 L276.864,43 L276.864,40.384 L273.768,40.384 L273.768,31.936 L270.6,31.936 L270.6,54.016 L273.768,54.016 Z M258.024,50.248 C265.392,46.528 267.888,40.864 267.888,34.216 L257.472,34.216 L257.472,36.784 L264.696,36.784 C264.12,41.704 261.408,45.16 256.248,47.824 L258.024,50.248 Z M296.952,54.04 L296.952,31.936 L293.76,31.936 L293.76,54.04 L296.952,54.04 Z M280.248,50.32 C288.096,46.552 290.376,40.984 290.376,34.24 L279.768,34.24 L279.768,36.76 L287.136,36.76 C286.68,41.656 284.232,45.136 278.592,47.824 L280.248,50.32 Z" id="올해는꼭바다낚시가기" fill="#FFFFFF" fill-rule="nonzero"></path>
                </g>
            </g>
        </g>
    </g>
</svg>