<?xml version="1.0" encoding="UTF-8"?>
<svg width="39px" height="40px" viewBox="0 0 39 40" version="1.1" xmlns="http://www.w3.org/2000/svg" xmlns:xlink="http://www.w3.org/1999/xlink">
    <title>xmark</title>
    <g id="LOGO" stroke="none" stroke-width="1" fill="none" fill-rule="evenodd">
        <path d="M4.44140625,39.4023438 C5.04296875,39.2539062 5.5625,38.9609375 6,38.5234375 L19.3828125,25.140625 L32.7421875,38.5234375 C33.1796875,38.9609375 33.703125,39.2539062 34.3125,39.4023438 C34.921875,39.5507812 35.53125,39.546875 36.140625,39.390625 C36.75,39.234375 37.28125,38.9296875 37.734375,38.4765625 C38.1875,38.0234375 38.4882812,37.4921875 38.6367188,36.8828125 C38.7851562,36.2734375 38.7890625,35.6640625 38.6484375,35.0546875 C38.5078125,34.4453125 38.21875,33.921875 37.78125,33.484375 L24.421875,20.1015625 L37.78125,6.7421875 C38.21875,6.2890625 38.5117188,5.76171875 38.6601562,5.16015625 C38.8085938,4.55859375 38.8046875,3.953125 38.6484375,3.34375 C38.4921875,2.734375 38.1875,2.203125 37.734375,1.75 C37.265625,1.296875 36.7304688,0.9921875 36.1289062,0.8359375 C35.5273438,0.6796875 34.921875,0.67578125 34.3125,0.82421875 C33.703125,0.97265625 33.1796875,1.265625 32.7421875,1.703125 L19.3828125,15.0625 L6,1.703125 C5.5625,1.265625 5.0390625,0.9765625 4.4296875,0.8359375 C3.8203125,0.6953125 3.20703125,0.6953125 2.58984375,0.8359375 C1.97265625,0.9765625 1.4375,1.28125 0.984375,1.75 C0.546875,2.203125 0.25390625,2.734375 0.10546875,3.34375 C-0.04296875,3.953125 -0.04296875,4.5625 0.10546875,5.171875 C0.25390625,5.78125 0.5390625,6.296875 0.9609375,6.71875 L14.34375,20.1015625 L0.9609375,33.5078125 C0.5390625,33.9296875 0.25,34.4414062 0.09375,35.0429688 C-0.0625,35.6445312 -0.06640625,36.2578125 0.08203125,36.8828125 C0.23046875,37.5078125 0.53125,38.046875 0.984375,38.5 C1.453125,38.953125 1.99609375,39.2539062 2.61328125,39.4023438 C3.23046875,39.5507812 3.83984375,39.5507812 4.44140625,39.4023438 Z" id="xmark" fill="#FFFFFF" fill-rule="nonzero"></path>
    </g>
</svg>